<svg width="180" height="180" viewBox="0 0 180 180" fill="none" xmlns="http://www.w3.org/2000/svg">
<rect width="180" height="180" fill="white"/>
<mask id="mask0_1517_28554" style="mask-type:luminance" maskUnits="userSpaceOnUse" x="82" y="16" width="65" height="131">
<path d="M146.88 16.32H82.08V146.88H146.88V16.32Z" fill="white"/>
</mask>
<g mask="url(#mask0_1517_28554)">
<path d="M145.849 100.612C146.093 100.693 146.175 100.852 146.096 101.092L140.021 113.962C139.941 114.127 139.821 114.21 139.661 114.21H94.2564C94.2564 114.21 94.2151 114.21 94.1364 114.21H87.9489C87.7033 114.21 87.5814 114.086 87.5814 113.842C87.5814 113.599 87.7033 113.475 87.9489 113.475C89.5633 113.475 90.9358 112.911 92.0664 111.78C93.2008 110.646 93.7689 109.271 93.7689 107.655V35.5424C93.7689 33.9224 93.2008 32.5481 92.0664 31.4174C90.9358 30.2831 89.5633 29.7149 87.9489 29.7149C87.7033 29.7149 87.5814 29.5949 87.5814 29.3549C87.5814 29.1112 87.7033 28.9874 87.9489 28.9874H104.576C104.82 28.9874 104.944 29.1112 104.944 29.3549C104.944 29.5949 104.82 29.7149 104.576 29.7149C102.956 29.7149 101.578 30.2831 100.444 31.4174C99.3133 32.5481 98.7489 33.9224 98.7489 35.5424V107.655C98.7489 109.271 99.3133 110.646 100.444 111.78C101.578 112.911 102.956 113.475 104.576 113.475H126.791C129.135 113.475 131.524 112.89 133.954 111.72C136.384 110.546 138.608 109.009 140.629 107.107C142.654 105.202 144.233 103.078 145.369 100.732C145.448 100.489 145.609 100.447 145.849 100.612Z" fill="#062025"/>
</g>
<mask id="mask1_1517_28554" style="mask-type:luminance" maskUnits="userSpaceOnUse" x="39" y="49" width="80" height="131">
<path d="M118.56 49.92H39.36V180H118.56V49.92Z" fill="white"/>
</mask>
<g mask="url(#mask1_1517_28554)">
<path d="M114.388 147.113C114.547 147.113 114.667 147.156 114.748 147.24C114.826 147.321 114.868 147.402 114.868 147.48C114.868 147.724 114.706 147.848 114.388 147.848H108.193C108.193 147.848 107.848 147.848 107.158 147.848C106.471 147.848 105.785 147.848 105.095 147.848C104.409 147.848 104.068 147.848 104.068 147.848C104.068 147.848 103.539 147.848 102.485 147.848C101.435 147.848 100.402 147.848 99.3877 147.848C98.3771 147.848 97.8727 147.848 97.8727 147.848C97.5521 147.848 97.3927 147.724 97.3927 147.48C97.3927 147.237 97.5521 147.113 97.8727 147.113C99.4927 147.113 100.867 146.549 101.998 145.418C103.132 144.284 103.7 142.909 103.7 141.293V103.898C103.7 100.259 102.444 97.1236 99.9352 94.4929C97.4302 91.8642 94.3552 90.4261 90.7102 90.1804C90.3896 90.1804 90.1477 90.1804 89.9827 90.1804C86.2627 90.1804 82.8652 91.2342 79.7902 93.3379C77.5196 94.9579 75.6971 96.9811 74.3227 99.4054C74.3227 99.4917 74.2815 99.6529 74.2027 99.8929C71.7727 104.588 68.0902 106.935 63.1552 106.935C62.994 106.935 62.8327 106.935 62.6677 106.935C59.9171 106.776 57.4496 105.803 55.2652 104.018C53.3246 102.323 52.029 100.182 51.3802 97.5904C51.2996 97.1011 51.219 96.5742 51.1402 96.0079C51.054 95.6029 51.0127 95.1979 51.0127 94.7929V69.1804C51.0127 67.5604 50.4446 66.1861 49.3102 65.0554C48.1796 63.9211 46.8071 63.3529 45.1927 63.3529C44.9471 63.3529 44.8252 63.2329 44.8252 62.9929C44.8252 62.7492 44.9471 62.6254 45.1927 62.6254H51.5002C51.5002 62.6254 51.8415 62.6254 52.5277 62.6254C53.2177 62.6254 53.9077 62.6254 54.5977 62.6254C55.2877 62.6254 55.6327 62.6254 55.6327 62.6254C55.6327 62.6254 56.1371 62.6254 57.1477 62.6254C58.1565 62.6254 59.1877 62.6254 60.2377 62.6254C61.2915 62.6254 61.8202 62.6254 61.8202 62.6254C62.064 62.6254 62.1877 62.7492 62.1877 62.9929C62.1877 63.2329 62.064 63.3529 61.8202 63.3529C60.2002 63.3529 58.8221 63.9211 57.6877 65.0554C56.5571 66.1861 55.9927 67.5604 55.9927 69.1804V98.7979C55.9927 98.7979 55.9927 98.8411 55.9927 98.9254C55.9927 100.785 56.6396 102.404 57.9352 103.778C59.229 105.154 60.849 105.923 62.7952 106.088C62.874 106.088 62.994 106.088 63.1552 106.088C67.7696 106.088 71.2102 103.86 73.4752 99.4054C73.4752 99.3267 73.554 99.2067 73.7152 99.0454C75.0896 96.4561 76.9927 94.3504 79.4227 92.7304C82.5765 90.4654 86.0977 89.3329 89.9827 89.3329C90.1477 89.3329 90.3896 89.3742 90.7102 89.4529C96.294 89.6142 100.867 91.8811 104.428 96.2554C106.126 98.2767 107.302 100.581 107.953 103.17C108.358 104.79 108.56 106.41 108.56 108.03V141.293C108.639 142.909 109.245 144.284 110.375 145.418C111.51 146.549 112.846 147.113 114.388 147.113ZM61.8202 147.113C61.899 147.113 61.9796 147.156 62.0602 147.24C62.1446 147.321 62.1877 147.402 62.1877 147.48C62.1877 147.724 62.064 147.848 61.8202 147.848H55.6327C55.6327 147.848 55.2877 147.848 54.5977 147.848C53.9077 147.848 53.2177 147.848 52.5277 147.848C51.8415 147.848 51.5002 147.848 51.5002 147.848C51.5002 147.848 50.9715 147.848 49.9177 147.848C48.8677 147.848 47.8177 147.848 46.7677 147.848C45.7177 147.848 45.1927 147.848 45.1927 147.848C44.9471 147.848 44.8252 147.724 44.8252 147.48C44.8252 147.237 44.9471 147.113 45.1927 147.113C46.8071 147.113 48.1796 146.549 49.3102 145.418C50.4446 144.284 51.0127 142.909 51.0127 141.293V106.328C51.0127 106.169 51.0952 106.047 51.2602 105.96C51.4196 105.882 51.5827 105.923 51.7477 106.088C52.9571 107.299 54.2921 108.269 55.7527 108.998C55.9121 109.079 55.9927 109.2 55.9927 109.365V141.293C55.9927 142.909 56.5571 144.284 57.6877 145.418C58.8221 146.549 60.2002 147.113 61.8202 147.113ZM97.8727 63.3529C97.7115 63.3529 97.5915 63.3136 97.5127 63.2329C97.4321 63.1542 97.3927 63.0736 97.3927 62.9929C97.3927 62.7492 97.5521 62.6254 97.8727 62.6254H104.068C104.068 62.6254 104.409 62.6254 105.095 62.6254C105.785 62.6254 106.471 62.6254 107.158 62.6254C107.848 62.6254 108.193 62.6254 108.193 62.6254C108.193 62.6254 108.718 62.6254 109.768 62.6254C110.821 62.6254 111.855 62.6254 112.865 62.6254C113.88 62.6254 114.388 62.6254 114.388 62.6254C114.706 62.6254 114.868 62.7492 114.868 62.9929C114.868 63.2329 114.706 63.3529 114.388 63.3529C112.846 63.3529 111.51 63.9211 110.375 65.0554C109.245 66.1861 108.639 67.5604 108.56 69.1804V93.0979C108.56 93.2592 108.478 93.3792 108.313 93.4579C108.313 93.4579 108.271 93.4579 108.193 93.4579C108.031 93.4579 107.911 93.4186 107.833 93.3379C106.696 91.8829 105.36 90.5892 103.82 89.4529C103.74 89.3742 103.7 89.2542 103.7 89.0929V69.1804C103.7 67.5604 103.132 66.1861 101.998 65.0554C100.867 63.9211 99.4927 63.3529 97.8727 63.3529Z" fill="#062025"/>
</g>
<mask id="mask2_1517_28554" style="mask-type:luminance" maskUnits="userSpaceOnUse" x="11" y="11" width="76" height="71">
<path d="M86.88 11.52H11.52V81.12H86.88V11.52Z" fill="white"/>
</mask>
<g mask="url(#mask2_1517_28554)">
<path d="M38.0129 76.6999L39.3254 73.0774L39.0104 72.8299L36.8279 74.2024L36.8054 74.1799L37.6004 71.6899L37.3379 71.4724L34.0229 73.4674L34.3154 73.7074L36.7904 72.2149L36.8129 72.2299L35.9129 74.9974L36.0179 75.0874L38.4854 73.5499L38.5079 73.5649L37.5179 76.3024L38.0129 76.6999Z" fill="#062025"/>
<path d="M31.1906 66.5354L31.0556 66.6254C30.7856 66.8054 30.5812 67.0004 30.4406 67.2104C30.2962 67.4166 30.2044 67.6285 30.1631 67.8479C30.1181 68.0691 30.1237 68.2866 30.1781 68.5004C30.2287 68.7104 30.3187 68.9129 30.4481 69.1079C30.5831 69.3123 30.7462 69.4773 30.9356 69.6029C31.1212 69.7266 31.3256 69.8091 31.5506 69.8504C31.7756 69.8898 32.0081 69.8804 32.2481 69.8204C32.4844 69.7641 32.7244 69.6554 32.9681 69.4904C33.1687 69.3554 33.3431 69.1923 33.4931 69.0029C33.6394 68.8116 33.7444 68.6054 33.8081 68.3804C33.8737 68.1516 33.8869 67.9079 33.8456 67.6529C33.8062 67.3941 33.6994 67.1316 33.5231 66.8654C33.3487 66.6066 33.1406 66.3985 32.9006 66.2429C32.6606 66.0891 32.4037 65.9916 32.1281 65.9504L32.0681 66.2654C32.2031 66.301 32.3269 66.3366 32.4356 66.3704C32.5462 66.406 32.6456 66.4491 32.7356 66.4979C32.8219 66.5485 32.9044 66.6066 32.9831 66.6704C33.0637 66.736 33.1387 66.8204 33.2081 66.9254C33.2831 67.036 33.3469 67.1691 33.3956 67.3229C33.4462 67.4729 33.4631 67.6304 33.4481 67.7954C33.4331 67.9604 33.3731 68.1329 33.2681 68.3129C33.1594 68.4891 32.9812 68.6579 32.7356 68.8229L31.1906 66.5354ZM32.4881 68.9879C32.3287 69.0966 32.1619 69.1866 31.9856 69.2579C31.8112 69.3273 31.6444 69.3648 31.4831 69.3704C31.3181 69.3741 31.1644 69.3441 31.0181 69.2804C30.8737 69.2204 30.7537 69.1173 30.6581 68.9729C30.4631 68.6879 30.4237 68.3916 30.5381 68.0804C30.6544 67.771 30.9056 67.4841 31.2956 67.2179L32.4881 68.9879Z" fill="#062025"/>
<path d="M25.288 61.1405L25.4755 61.7255L27.433 61.088L27.4405 61.118C27.3355 61.2042 27.2567 61.298 27.2005 61.403C27.1405 61.508 27.103 61.6167 27.088 61.7255C27.0692 61.8361 27.0636 61.9486 27.073 62.063C27.0842 62.1792 27.1067 62.2917 27.1405 62.4005C27.2155 62.6367 27.328 62.8355 27.478 63.0005C27.628 63.1655 27.8061 63.293 28.0105 63.383C28.2111 63.4767 28.4361 63.5255 28.6855 63.5255C28.9311 63.5292 29.1917 63.488 29.4655 63.398C29.7411 63.308 29.9792 63.1899 30.178 63.0455C30.373 62.8955 30.5286 62.723 30.643 62.528C30.7536 62.333 30.8211 62.1267 30.8455 61.9055C30.8661 61.6861 30.838 61.4592 30.763 61.223C30.5886 60.683 30.2567 60.3961 29.7655 60.3605L29.758 60.3305L30.3205 60.1505L30.133 59.5655L25.288 61.1405ZM28.9405 60.6005C29.0905 60.5517 29.2442 60.5311 29.398 60.5405C29.548 60.5461 29.6886 60.5742 29.818 60.623C29.9436 60.6736 30.0542 60.7505 30.148 60.8555C30.2436 60.9567 30.313 61.0711 30.358 61.2005C30.4086 61.3505 30.4292 61.4986 30.418 61.643C30.403 61.7892 30.3542 61.928 30.268 62.063C30.1836 62.198 30.058 62.3255 29.893 62.4455C29.728 62.5617 29.5161 62.6611 29.2555 62.7455C28.9967 62.8317 28.7661 62.8767 28.5655 62.8805C28.3611 62.8805 28.183 62.8505 28.033 62.7905C27.883 62.7267 27.7611 62.6386 27.6655 62.528C27.5717 62.4192 27.5005 62.2917 27.4555 62.1455C27.4161 62.0217 27.403 61.8905 27.418 61.7555C27.4292 61.6205 27.4742 61.493 27.553 61.373C27.628 61.253 27.7311 61.1442 27.8605 61.043C27.9917 60.938 28.1511 60.8555 28.3405 60.7955L28.9405 60.6005Z" fill="#062025"/>
<path d="M24.3321 53.0444L24.3471 53.6594L26.4021 53.5919V53.6219C26.2783 53.6781 26.1752 53.7475 26.0946 53.8319C26.0102 53.9125 25.9427 54.0044 25.8921 54.1094C25.8433 54.2106 25.8077 54.3175 25.7871 54.4319C25.7683 54.5481 25.7571 54.6625 25.7571 54.7769C25.7683 55.0225 25.8208 55.2456 25.9146 55.4444C26.0102 55.645 26.1433 55.8175 26.3121 55.9619C26.4827 56.1081 26.6852 56.2169 26.9196 56.2919C27.1558 56.3631 27.4183 56.3931 27.7071 56.3819C27.9977 56.3725 28.2602 56.3256 28.4946 56.2394C28.7252 56.1494 28.9221 56.0275 29.0871 55.8719C29.2483 55.7181 29.3702 55.5381 29.4546 55.3319C29.5408 55.1275 29.5764 54.9025 29.5671 54.6569C29.5521 54.0869 29.3121 53.7175 28.8471 53.5469V53.5169L29.4396 53.4944L29.4246 52.8794L24.3321 53.0444ZM27.9846 53.5394C28.1458 53.5356 28.2977 53.5581 28.4421 53.6069C28.5883 53.6575 28.7158 53.725 28.8246 53.8094C28.9296 53.8956 29.0158 54.0006 29.0796 54.1244C29.1452 54.2444 29.1808 54.3756 29.1846 54.5144C29.1902 54.67 29.1677 54.8181 29.1171 54.9569C29.0627 55.0919 28.9783 55.2156 28.8621 55.3244C28.7421 55.4294 28.5883 55.5156 28.3971 55.5794C28.2021 55.645 27.9677 55.6825 27.6921 55.6919C27.4183 55.7031 27.1858 55.6806 26.9946 55.6244C26.7996 55.57 26.6383 55.4931 26.5071 55.3919C26.3777 55.2925 26.2858 55.1744 26.2296 55.0394C26.1696 54.9044 26.1377 54.7619 26.1321 54.6119C26.1283 54.4769 26.1508 54.3494 26.1996 54.2294C26.2502 54.1056 26.3308 53.995 26.4396 53.8994C26.5446 53.8 26.6758 53.7194 26.8296 53.6594C26.9796 53.5994 27.1558 53.5675 27.3546 53.5619L27.9846 53.5394Z" fill="#062025"/>
<path d="M26.3653 48.3196L29.9203 49.0771L30.0478 48.4771L26.4928 47.7196L26.3653 48.3196ZM25.2178 48.1771C25.319 48.1977 25.4165 48.1808 25.5103 48.1246C25.6059 48.0646 25.664 47.9821 25.6828 47.8771C25.7034 47.7721 25.6828 47.6727 25.6228 47.5771C25.5628 47.4833 25.484 47.4252 25.3828 47.4046C25.274 47.3802 25.1728 47.4008 25.0828 47.4646C24.989 47.5246 24.9309 47.6071 24.9103 47.7121C24.8915 47.8171 24.9103 47.9146 24.9703 48.0046C25.0265 48.0946 25.109 48.1527 25.2178 48.1771Z" fill="#062025"/>
<path d="M32.4551 42.0647L30.3326 41.0447C30.2539 41.0109 30.1414 40.9678 29.9951 40.9172C29.8508 40.8628 29.6933 40.8403 29.5226 40.8497C29.3539 40.8609 29.1833 40.9209 29.0126 41.0297C28.8383 41.1403 28.6808 41.3409 28.5401 41.6297C28.4764 41.7497 28.4333 41.9034 28.4126 42.0872C28.3939 42.2728 28.4239 42.4809 28.5026 42.7097L28.5551 42.8522L28.5401 42.8822L28.1276 42.6872L27.8651 43.2422L31.1426 44.8097L31.4051 44.2547L29.3726 43.2797C29.2039 43.2009 29.0689 43.1072 28.9676 43.0022C28.8683 42.8972 28.7989 42.7828 28.7576 42.6572C28.7126 42.5334 28.6976 42.4078 28.7126 42.2822C28.7276 42.1528 28.7633 42.0328 28.8176 41.9222C28.9039 41.7384 29.0051 41.6128 29.1251 41.5472C29.2451 41.4834 29.3633 41.4497 29.4776 41.4497C29.5939 41.4459 29.7026 41.4628 29.8076 41.5022C29.9089 41.5378 29.9801 41.5659 30.0251 41.5847L32.1851 42.6197L32.4551 42.0647Z" fill="#062025"/>
<path d="M36.3492 37.3721C36.5142 37.5183 36.6361 37.6627 36.7167 37.8071C36.7955 37.9477 36.8405 38.0846 36.8517 38.2196C36.8611 38.3546 36.8405 38.4877 36.7917 38.6171C36.7411 38.7427 36.6661 38.8571 36.5667 38.9621C36.4017 39.1571 36.2161 39.2696 36.0117 39.2996C35.8055 39.3296 35.5805 39.3221 35.3367 39.2771V39.8171C35.3855 39.8171 35.4605 39.8133 35.5617 39.8096C35.6667 39.8039 35.7811 39.7814 35.9067 39.7421C36.0305 39.7064 36.1655 39.6483 36.3117 39.5696C36.4561 39.4908 36.593 39.3746 36.7242 39.2246C36.968 38.9508 37.1255 38.6921 37.1967 38.4521C37.2717 38.2121 37.283 37.9871 37.2342 37.7771C37.1892 37.5633 37.0955 37.3646 36.9567 37.1846C36.8217 37.0008 36.6605 36.8246 36.4767 36.6596L33.8067 34.2896L33.3942 34.7546L33.8217 35.1371L33.8067 35.1596C33.6117 35.0658 33.4092 35.0527 33.1992 35.1221C32.9855 35.1877 32.7755 35.3358 32.5692 35.5646C32.4042 35.7502 32.2898 35.9508 32.2242 36.1646C32.1548 36.3746 32.1342 36.5902 32.1642 36.8096C32.1905 37.0252 32.2655 37.2408 32.3892 37.4546C32.5092 37.6646 32.678 37.8671 32.8917 38.0621C33.113 38.2533 33.338 38.3977 33.5667 38.4971C33.7917 38.5927 34.013 38.6433 34.2342 38.6471C34.4536 38.6471 34.6636 38.6021 34.8642 38.5121C35.063 38.4221 35.2467 38.2852 35.4117 38.0996C35.5917 37.8952 35.708 37.6833 35.7642 37.4621C35.8186 37.2371 35.7867 37.0177 35.6667 36.8021L35.6817 36.7796L36.3492 37.3721ZM34.9542 36.1421C35.108 36.2771 35.2261 36.4177 35.3067 36.5621C35.3855 36.7027 35.4342 36.8452 35.4492 36.9896C35.468 37.1302 35.4586 37.2652 35.4192 37.3946C35.3836 37.5202 35.3217 37.6308 35.2317 37.7246C35.1567 37.8108 35.0592 37.8933 34.9392 37.9721C34.8192 38.0471 34.6786 38.0902 34.5192 38.0996C34.358 38.1052 34.1817 38.0696 33.9867 37.9946C33.788 37.9158 33.5667 37.7677 33.3267 37.5521C33.0717 37.3271 32.8992 37.1152 32.8092 36.9146C32.7155 36.7102 32.6705 36.5246 32.6742 36.3596C32.6742 36.1946 32.7042 36.0558 32.7642 35.9396C32.8242 35.8252 32.8805 35.7408 32.9292 35.6846C33.0398 35.5646 33.1617 35.4821 33.2967 35.4371C33.4317 35.3921 33.5723 35.3771 33.7167 35.3921C33.863 35.4071 34.0073 35.4502 34.1517 35.5196C34.2961 35.5908 34.4311 35.6808 34.5567 35.7896L34.9542 36.1421Z" fill="#062025"/>
<path d="M46.3214 30.4449C46.1114 30.7449 45.9051 30.9662 45.7064 31.1049C45.5114 31.2399 45.3183 31.3431 45.1289 31.4124C44.8476 31.5081 44.5889 31.5549 44.3489 31.5549C44.1089 31.5549 43.8933 31.5174 43.7039 31.4424C43.5126 31.3674 43.3533 31.2624 43.2239 31.1274C43.0983 30.9924 43.0064 30.8424 42.9464 30.6774C42.8864 30.5087 42.8639 30.3381 42.8789 30.1674C42.8939 29.9987 42.937 29.8299 43.0064 29.6649C43.0814 29.4962 43.1789 29.3331 43.2989 29.1774C43.4189 29.0181 43.5539 28.8606 43.7039 28.7049C43.4826 28.5512 43.2933 28.4087 43.1339 28.2774C42.9745 28.1424 42.8601 27.9774 42.7889 27.7824C42.7495 27.6681 42.727 27.5424 42.7214 27.4074C42.7176 27.2724 42.742 27.1449 42.7964 27.0249C42.847 26.9012 42.9276 26.7831 43.0364 26.6724C43.1451 26.5581 43.2876 26.4699 43.4639 26.4099C43.6083 26.3612 43.7508 26.3387 43.8914 26.3424C44.0301 26.3424 44.1614 26.3706 44.2814 26.4249C44.4051 26.4812 44.5158 26.5599 44.6114 26.6649C44.7051 26.7662 44.7801 26.8899 44.8364 27.0399C44.9058 27.2349 44.9058 27.4487 44.8364 27.6774C44.7708 27.9024 44.6058 28.1481 44.3414 28.4124L46.3439 29.7324C46.4189 29.5037 46.4508 29.2581 46.4414 28.9974C46.4301 28.7331 46.3683 28.4162 46.2539 28.0449L46.7789 27.8649C46.8483 28.1199 46.8801 28.3581 46.8764 28.5774C46.8764 28.7987 46.8576 28.9974 46.8239 29.1774C46.7939 29.3574 46.7564 29.5131 46.7114 29.6424C46.6664 29.7681 46.6308 29.8581 46.6064 29.9124L47.5064 30.4899L46.7789 30.7449L46.3214 30.4449ZM43.6064 26.7024C43.5051 26.7381 43.4264 26.7849 43.3664 26.8449C43.3101 26.9049 43.2689 26.9706 43.2389 27.0399C43.2089 27.1112 43.1958 27.1824 43.2014 27.2574C43.2108 27.3324 43.2276 27.4056 43.2539 27.4749C43.3083 27.6306 43.4114 27.7674 43.5614 27.8874C43.7151 28.0074 43.8951 28.1331 44.1014 28.2624C44.1558 28.2137 44.2083 28.1481 44.2589 28.0674C44.3076 27.9831 44.3508 27.8931 44.3864 27.7974C44.4201 27.6981 44.4408 27.5931 44.4464 27.4824C44.4501 27.3737 44.4333 27.2631 44.3939 27.1524C44.3733 27.0924 44.3376 27.0287 44.2889 26.9574C44.2439 26.8881 44.1876 26.8281 44.1239 26.7774C44.0639 26.7287 43.9889 26.6931 43.8989 26.6724C43.8126 26.6537 43.7151 26.6631 43.6064 26.7024ZM43.9589 28.8849C43.6889 29.1812 43.5183 29.4362 43.4489 29.6499C43.3833 29.8599 43.3889 30.0681 43.4639 30.2724C43.5276 30.4581 43.6233 30.6099 43.7489 30.7299C43.8783 30.8462 44.0226 30.9324 44.1839 30.9924C44.3433 31.0524 44.5083 31.0806 44.6789 31.0749C44.8533 31.0712 45.0183 31.0431 45.1739 30.9924C45.2076 30.9774 45.2601 30.9531 45.3314 30.9174C45.4064 30.8837 45.4851 30.8406 45.5714 30.7899C45.6614 30.7356 45.7476 30.6681 45.8339 30.5874C45.9239 30.5031 46.0026 30.4037 46.0739 30.2874L43.9589 28.8849Z" fill="#062025"/>
<path d="M59.2154 28.8582L59.2379 28.7007C59.2923 28.3819 59.2923 28.0988 59.2379 27.8532C59.1873 27.6038 59.0973 27.3882 58.9679 27.2082C58.8367 27.0244 58.6773 26.8782 58.4879 26.7732C58.2967 26.6644 58.0848 26.5894 57.8504 26.5482C57.6104 26.5088 57.3798 26.5144 57.1604 26.5632C56.9392 26.6082 56.7367 26.6982 56.5529 26.8332C56.3729 26.9682 56.2192 27.1444 56.0954 27.3582C55.9754 27.5682 55.8892 27.8194 55.8404 28.1082C55.8048 28.3482 55.8048 28.5882 55.8404 28.8282C55.8742 29.0644 55.9529 29.2838 56.0729 29.4882C56.1929 29.6944 56.3598 29.8707 56.5754 30.0207C56.7892 30.1707 57.0554 30.27 57.3704 30.3207C57.6742 30.3694 57.9648 30.3619 58.2404 30.2982C58.5198 30.2325 58.7692 30.1144 58.9904 29.9457L58.8029 29.6757C58.6867 29.7507 58.5779 29.8163 58.4729 29.8707C58.3717 29.9307 58.2723 29.9757 58.1729 30.0057C58.0773 30.0394 57.9779 30.06 57.8729 30.0657C57.7717 30.075 57.6629 30.0694 57.5429 30.0507C57.4079 30.03 57.2673 29.985 57.1229 29.9157C56.9823 29.8519 56.8567 29.7563 56.7479 29.6307C56.6373 29.5069 56.5548 29.3438 56.5004 29.1432C56.4442 28.9388 56.4423 28.6913 56.4929 28.4007L59.2154 28.8582ZM56.5379 28.1157C56.5679 27.9207 56.6167 27.7388 56.6879 27.5682C56.7573 27.3938 56.8454 27.2438 56.9504 27.1182C57.0592 26.9944 57.1867 26.9007 57.3329 26.8407C57.4773 26.7769 57.6348 26.7582 57.8054 26.7882C58.1448 26.8444 58.3867 27.0207 58.5329 27.3207C58.6773 27.6207 58.7129 28.0032 58.6379 28.4682L56.5379 28.1157Z" fill="#062025"/>
<path d="M63.2245 28.0366L63.082 31.9741L63.472 32.1616L66.337 29.4616L66.0295 29.3266L63.7345 31.4866L63.697 31.4716L63.8095 28.3066L63.2245 28.0366Z" fill="#062025"/>
<path d="M70.9728 35.255L71.0703 35.135C71.2803 34.8838 71.4247 34.6363 71.5053 34.3925C71.5841 34.1525 71.6122 33.9257 71.5878 33.71C71.5672 33.4907 71.5016 33.2825 71.3928 33.0875C71.2822 32.8925 71.1378 32.72 70.9578 32.57C70.7722 32.4163 70.5716 32.3057 70.3578 32.24C70.1478 32.1707 69.9303 32.1482 69.7053 32.1725C69.4803 32.1932 69.2591 32.2663 69.0453 32.39C68.8353 32.51 68.6347 32.6825 68.4453 32.9075C68.2897 33.0932 68.1678 33.2975 68.0778 33.5225C67.9878 33.7475 67.9428 33.9782 67.9428 34.2125C67.9428 34.4525 67.9972 34.6888 68.1078 34.925C68.2166 35.1594 68.3947 35.3788 68.6403 35.585C68.8747 35.7838 69.1297 35.9244 69.4053 36.005C69.6791 36.0894 69.9547 36.1138 70.2303 36.08L70.2003 35.7575C70.0653 35.7613 69.9397 35.7613 69.8253 35.7575C69.7091 35.7575 69.6003 35.7444 69.4953 35.72C69.3941 35.6994 69.2966 35.6675 69.2028 35.6225C69.1128 35.5813 69.0191 35.5213 68.9253 35.4425C68.8203 35.3563 68.7228 35.2494 68.6328 35.12C68.5428 34.9888 68.4791 34.8425 68.4453 34.6775C68.4153 34.5125 68.4266 34.3288 68.4828 34.13C68.5372 33.9313 68.6591 33.7157 68.8503 33.485L70.9728 35.255ZM69.0378 33.26C69.1616 33.1157 69.2966 32.9863 69.4428 32.87C69.5928 32.75 69.7447 32.6657 69.9003 32.615C70.0541 32.5663 70.2097 32.5513 70.3653 32.57C70.5191 32.585 70.6653 32.6488 70.8003 32.7575C71.0647 32.9788 71.1847 33.2563 71.1603 33.59C71.1341 33.92 70.9728 34.265 70.6728 34.625L69.0378 33.26Z" fill="#062025"/>
<path d="M73.833 41.5019L75.7755 40.1744C75.8505 40.1238 75.9443 40.0488 76.0605 39.9494C76.1749 39.8481 76.2705 39.7244 76.3455 39.5744C76.4243 39.4244 76.4599 39.2444 76.4505 39.0344C76.4449 38.8281 76.353 38.5956 76.173 38.3369C76.098 38.2169 75.9855 38.1025 75.8355 37.9919C75.6855 37.8831 75.4905 37.8081 75.2505 37.7669L75.1005 37.7294L75.078 37.7069L75.4605 37.4444L75.1155 36.9344L72.1155 38.9894L72.4605 39.4994L74.3205 38.2319C74.4743 38.1231 74.6224 38.0519 74.763 38.0219C74.9074 37.9881 75.0424 37.9825 75.168 38.0069C75.2974 38.0331 75.4118 38.0819 75.513 38.1569C75.618 38.2319 75.7043 38.32 75.7755 38.4194C75.8899 38.5881 75.9443 38.7419 75.9405 38.8769C75.9405 39.0119 75.9105 39.1319 75.8505 39.2369C75.7943 39.3419 75.7249 39.4263 75.6405 39.4919C75.5599 39.5613 75.498 39.6119 75.453 39.6419L73.4805 40.9919L73.833 41.5019Z" fill="#062025"/>
<path d="M78.422 43.2421L78.692 43.1371L78.9095 43.7296L79.9595 43.3471L80.177 43.9321L79.127 44.3146L79.427 45.1396L79.157 45.2446L78.857 44.4196L76.5845 45.2521C76.5339 45.2709 76.472 45.2971 76.397 45.3271C76.3258 45.3609 76.2658 45.4021 76.217 45.4471C76.1664 45.4921 76.1289 45.5446 76.1045 45.6046C76.0839 45.6684 76.0895 45.7434 76.1195 45.8296C76.1589 45.9384 76.232 46.0134 76.337 46.0546C76.4458 46.094 76.5564 46.1221 76.667 46.1371L76.4645 46.5721C76.1533 46.4315 75.9489 46.2215 75.8495 45.9421C75.8045 45.8221 75.7783 45.6965 75.7745 45.5671C75.7745 45.4415 75.7989 45.3196 75.8495 45.1996C75.9039 45.0834 75.9864 44.9709 76.097 44.8621C76.2114 44.7571 76.3558 44.6709 76.532 44.6071L78.6395 43.8346L78.422 43.2421Z" fill="#062025"/>
<path d="M79.8926 51.6783C80.0276 51.6633 80.1439 51.6145 80.2451 51.5358C80.3501 51.4552 80.4345 51.3502 80.5001 51.2208C80.5639 51.0952 80.6089 50.9508 80.6351 50.7858C80.6651 50.6245 80.667 50.4558 80.6426 50.2758C80.622 50.1108 80.5826 49.9552 80.5226 49.8108C80.4626 49.6702 80.382 49.5502 80.2826 49.4508C80.1814 49.3552 80.0651 49.282 79.9301 49.2333C79.7951 49.1883 79.6414 49.1752 79.4726 49.1958C79.242 49.2258 79.0639 49.3008 78.9401 49.4208C78.8201 49.5408 78.7264 49.6852 78.6626 49.8558C78.6026 50.0245 78.5595 50.2045 78.5351 50.3958C78.5089 50.5908 78.4751 50.7708 78.4301 50.9358C78.3889 51.1045 78.3289 51.247 78.2501 51.3633C78.1751 51.4833 78.057 51.5527 77.8976 51.5733C77.8264 51.577 77.7551 51.5733 77.6801 51.5583C77.6089 51.547 77.5395 51.5152 77.4701 51.4608C77.4045 51.4102 77.3445 51.337 77.2901 51.2433C77.2339 51.1477 77.1964 51.022 77.1776 50.8683C77.157 50.677 77.1664 50.512 77.2076 50.3733C77.2526 50.2327 77.3089 50.1145 77.3801 50.0208C77.4551 49.9252 77.532 49.852 77.6126 49.8033C77.697 49.7583 77.7701 49.7302 77.8301 49.7208L77.7776 49.2558C77.6426 49.2708 77.5151 49.3177 77.3951 49.3983C77.2751 49.477 77.172 49.5858 77.0876 49.7208C77.0014 49.8595 76.9395 50.0245 76.9001 50.2158C76.8589 50.4108 76.8551 50.6302 76.8851 50.8758C76.9339 51.3202 77.0726 51.6427 77.2976 51.8433C77.5226 52.042 77.7926 52.1227 78.1076 52.0833C78.342 52.057 78.522 51.982 78.6476 51.8583C78.7714 51.7327 78.867 51.5827 78.9326 51.4083C78.9964 51.2377 79.0451 51.052 79.0751 50.8533C79.1051 50.6527 79.137 50.467 79.1726 50.2983C79.212 50.1333 79.2664 49.9908 79.3376 49.8708C79.407 49.7508 79.5139 49.6795 79.6601 49.6608C79.7239 49.6552 79.7914 49.6608 79.8626 49.6758C79.9376 49.6908 80.007 49.7227 80.0726 49.7733C80.142 49.822 80.202 49.8933 80.2526 49.9833C80.307 50.077 80.3445 50.1952 80.3651 50.3358C80.3801 50.4802 80.3726 50.6077 80.3426 50.7183C80.3164 50.8327 80.277 50.9302 80.2226 51.0108C80.172 51.0895 80.112 51.1533 80.0426 51.1983C79.977 51.2433 79.9114 51.2677 79.8476 51.2733L79.8926 51.6783Z" fill="#062025"/>
</g>
<mask id="mask3_1517_28554" style="mask-type:luminance" maskUnits="userSpaceOnUse" x="121" y="124" width="11" height="12">
<path d="M121.193 124.631H131.52V135.071H121.193V124.631Z" fill="white"/>
</mask>
<g mask="url(#mask3_1517_28554)">
<path d="M126.323 124.631C125.822 128.856 125.417 129.261 121.193 129.761C121.2 129.763 121.209 129.763 121.219 129.765C125.419 130.264 125.824 130.676 126.323 134.891C126.821 130.667 127.226 130.262 131.453 129.761C127.226 129.261 126.821 128.856 126.323 124.631Z" fill="#062025"/>
</g>
<mask id="mask4_1517_28554" style="mask-type:luminance" maskUnits="userSpaceOnUse" x="47" y="46" width="12" height="11">
<path d="M47.6325 46.0331H58.0725V56.4731H47.6325V46.0331Z" fill="white"/>
</mask>
<g mask="url(#mask4_1517_28554)">
<path d="M52.7625 46.0331C52.2619 50.2575 51.8569 50.6625 47.6325 51.1631C47.64 51.1631 47.6494 51.165 47.6569 51.165H47.6588C51.8588 51.6638 52.2619 52.0763 52.7625 56.2931C53.2613 52.0669 53.6663 51.6619 57.8925 51.1631C53.6663 50.6625 53.2613 50.2575 52.7625 46.0331Z" fill="#062025"/>
</g>
</svg>
