<svg width="88" height="88" viewBox="0 0 88 88" fill="none" xmlns="http://www.w3.org/2000/svg">
<g clip-path="url(#clip0_1472_356)">
<mask id="mask0_1472_356" style="mask-type:luminance" maskUnits="userSpaceOnUse" x="40" y="7" width="32" height="65">
<path d="M71.808 7.97867H40.128V71.808H71.808V7.97867Z" fill="white"/>
</mask>
<g mask="url(#mask0_1472_356)">
<path d="M71.3039 49.1883C71.4231 49.2277 71.4634 49.3056 71.4249 49.423L68.4549 55.715C68.4155 55.7956 68.3568 55.836 68.2789 55.836H46.0809C46.0809 55.836 46.0607 55.836 46.0222 55.836H42.9972C42.8771 55.836 42.8176 55.7755 42.8176 55.6563C42.8176 55.5371 42.8771 55.4766 42.9972 55.4766C43.7865 55.4766 44.4575 55.2007 45.0102 54.648C45.5648 54.0934 45.8426 53.4215 45.8426 52.6313V17.3763C45.8426 16.5843 45.5648 15.9124 45.0102 15.3596C44.4575 14.8051 43.7865 14.5273 42.9972 14.5273C42.8771 14.5273 42.8176 14.4686 42.8176 14.3513C42.8176 14.2321 42.8771 14.1716 42.9972 14.1716H51.1262C51.2454 14.1716 51.3059 14.2321 51.3059 14.3513C51.3059 14.4686 51.2454 14.5273 51.1262 14.5273C50.3342 14.5273 49.6605 14.8051 49.1059 15.3596C48.5531 15.9124 48.2772 16.5843 48.2772 17.3763V52.6313C48.2772 53.4215 48.5531 54.0934 49.1059 54.648C49.6605 55.2007 50.3342 55.4766 51.1262 55.4766H61.9869C63.1327 55.4766 64.3006 55.1906 65.4886 54.6186C66.6766 54.0448 67.7637 53.2931 68.7519 52.3636C69.7419 51.4323 70.5137 50.3937 71.0692 49.247C71.1077 49.1278 71.1866 49.1076 71.3039 49.1883Z" fill="white"/>
</g>
<mask id="mask1_1472_356" style="mask-type:luminance" maskUnits="userSpaceOnUse" x="19" y="24" width="39" height="64">
<path d="M57.9627 24.4053H19.2427V88H57.9627V24.4053Z" fill="white"/>
</mask>
<g mask="url(#mask1_1472_356)">
<path d="M55.9229 71.9219C56.0008 71.9219 56.0595 71.943 56.0989 71.9842C56.1374 72.0236 56.1576 72.063 56.1576 72.1015C56.1576 72.2207 56.0787 72.2812 55.9229 72.2812H52.8942C52.8942 72.2812 52.7256 72.2812 52.3882 72.2812C52.0527 72.2812 51.7172 72.2812 51.3799 72.2812C51.0444 72.2812 50.8776 72.2812 50.8776 72.2812C50.8776 72.2812 50.6191 72.2812 50.1039 72.2812C49.5906 72.2812 49.0855 72.2812 48.5896 72.2812C48.0955 72.2812 47.8489 72.2812 47.8489 72.2812C47.6921 72.2812 47.6142 72.2207 47.6142 72.1015C47.6142 71.9824 47.6921 71.9219 47.8489 71.9219C48.6409 71.9219 49.3128 71.646 49.8656 71.0932C50.4201 70.5386 50.6979 69.8667 50.6979 69.0765V50.7945C50.6979 49.0153 50.0837 47.4826 48.8572 46.1965C47.6326 44.9114 46.1292 44.2083 44.3472 44.0882C44.1905 44.0882 44.0722 44.0882 43.9916 44.0882C42.1729 44.0882 40.5119 44.6034 39.0086 45.6319C37.8985 46.4239 37.0075 47.413 36.3356 48.5982C36.3356 48.6404 36.3154 48.7192 36.2769 48.8365C35.0889 51.1319 33.2886 52.2795 30.8759 52.2795C30.7971 52.2795 30.7182 52.2795 30.6376 52.2795C29.2928 52.2016 28.0865 51.7259 27.0186 50.8532C26.0698 50.0245 25.4364 48.9777 25.1192 47.7109C25.0798 47.4716 25.0404 47.214 25.0019 46.9372C24.9597 46.7392 24.9396 46.5412 24.9396 46.3432V33.8215C24.9396 33.0295 24.6618 32.3576 24.1072 31.8049C23.5545 31.2503 22.8835 30.9725 22.0942 30.9725C21.9741 30.9725 21.9146 30.9139 21.9146 30.7965C21.9146 30.6774 21.9741 30.6169 22.0942 30.6169H25.1779C25.1779 30.6169 25.3447 30.6169 25.6802 30.6169C26.0176 30.6169 26.3549 30.6169 26.6922 30.6169C27.0296 30.6169 27.1982 30.6169 27.1982 30.6169C27.1982 30.6169 27.4448 30.6169 27.9389 30.6169C28.4321 30.6169 28.9362 30.6169 29.4496 30.6169C29.9647 30.6169 30.2232 30.6169 30.2232 30.6169C30.3424 30.6169 30.4029 30.6774 30.4029 30.7965C30.4029 30.9139 30.3424 30.9725 30.2232 30.9725C29.4312 30.9725 28.7575 31.2503 28.2029 31.8049C27.6501 32.3576 27.3742 33.0295 27.3742 33.8215V48.3012C27.3742 48.3012 27.3742 48.3223 27.3742 48.3635C27.3742 49.2729 27.6905 50.064 28.3239 50.7359C28.9564 51.4087 29.7484 51.7845 30.6999 51.8652C30.7384 51.8652 30.7971 51.8652 30.8759 51.8652C33.1318 51.8652 34.8139 50.7762 35.9212 48.5982C35.9212 48.5597 35.9597 48.501 36.0386 48.4222C36.7105 47.1563 37.6409 46.1269 38.8289 45.3349C40.3707 44.2275 42.0922 43.6739 43.9916 43.6739C44.0722 43.6739 44.1905 43.694 44.3472 43.7325C47.0771 43.8114 49.3128 44.9196 51.0536 47.0582C51.8841 48.0464 52.4588 49.173 52.7769 50.4389C52.9749 51.2309 53.0739 52.0229 53.0739 52.8149V69.0765C53.1124 69.8667 53.4085 70.5386 53.9612 71.0932C54.5158 71.646 55.1694 71.9219 55.9229 71.9219ZM30.2232 71.9219C30.2617 71.9219 30.3011 71.943 30.3406 71.9842C30.3818 72.0236 30.4029 72.063 30.4029 72.1015C30.4029 72.2207 30.3424 72.2812 30.2232 72.2812H27.1982C27.1982 72.2812 27.0296 72.2812 26.6922 72.2812C26.3549 72.2812 26.0176 72.2812 25.6802 72.2812C25.3447 72.2812 25.1779 72.2812 25.1779 72.2812C25.1779 72.2812 24.9194 72.2812 24.4042 72.2812C23.8909 72.2812 23.3776 72.2812 22.8642 72.2812C22.3509 72.2812 22.0942 72.2812 22.0942 72.2812C21.9741 72.2812 21.9146 72.2207 21.9146 72.1015C21.9146 71.9824 21.9741 71.9219 22.0942 71.9219C22.8835 71.9219 23.5545 71.646 24.1072 71.0932C24.6618 70.5386 24.9396 69.8667 24.9396 69.0765V51.9825C24.9396 51.9046 24.9799 51.845 25.0606 51.8029C25.1385 51.7644 25.2182 51.7845 25.2989 51.8652C25.8901 52.4574 26.5428 52.9313 27.2569 53.2879C27.3348 53.3273 27.3742 53.3869 27.3742 53.4675V69.0765C27.3742 69.8667 27.6501 70.5386 28.2029 71.0932C28.7575 71.646 29.4312 71.9219 30.2232 71.9219ZM47.8489 30.9725C47.7701 30.9725 47.7114 30.9533 47.6729 30.9139C47.6335 30.8754 47.6142 30.836 47.6142 30.7965C47.6142 30.6774 47.6921 30.6169 47.8489 30.6169H50.8776C50.8776 30.6169 51.0444 30.6169 51.3799 30.6169C51.7172 30.6169 52.0527 30.6169 52.3882 30.6169C52.7256 30.6169 52.8942 30.6169 52.8942 30.6169C52.8942 30.6169 53.1509 30.6169 53.6642 30.6169C54.1794 30.6169 54.6845 30.6169 55.1786 30.6169C55.6745 30.6169 55.9229 30.6169 55.9229 30.6169C56.0787 30.6169 56.1576 30.6774 56.1576 30.7965C56.1576 30.9139 56.0787 30.9725 55.9229 30.9725C55.1694 30.9725 54.5158 31.2503 53.9612 31.8049C53.4085 32.3576 53.1124 33.0295 53.0739 33.8215V45.5145C53.0739 45.5934 53.0336 45.652 52.9529 45.6905C52.9529 45.6905 52.9327 45.6905 52.8942 45.6905C52.8154 45.6905 52.7567 45.6713 52.7182 45.6319C52.1627 44.9205 51.5091 44.288 50.7566 43.7325C50.7171 43.694 50.6979 43.6354 50.6979 43.5565V33.8215C50.6979 33.0295 50.4201 32.3576 49.8656 31.8049C49.3128 31.2503 48.6409 30.9725 47.8489 30.9725Z" fill="white"/>
</g>
<mask id="mask2_1472_356" style="mask-type:luminance" maskUnits="userSpaceOnUse" x="5" y="5" width="38" height="35">
<path d="M42.4747 5.632H5.632V39.6587H42.4747V5.632Z" fill="white"/>
</mask>
<g mask="url(#mask2_1472_356)">
<path d="M18.5841 37.4977L19.2257 35.7267L19.0717 35.6057L18.0047 36.2767L17.9937 36.2657L18.3824 35.0484L18.2541 34.9421L16.6334 35.9174L16.7764 36.0347L17.9864 35.3051L17.9974 35.3124L17.5574 36.6654L17.6087 36.7094L18.8151 35.9577L18.8261 35.9651L18.3421 37.3034L18.5841 37.4977Z" fill="white"/>
<path d="M15.2488 32.5284L15.1828 32.5724C15.0508 32.6604 14.9508 32.7557 14.8821 32.8584C14.8115 32.9592 14.7666 33.0628 14.7464 33.1701C14.7244 33.2782 14.7272 33.3846 14.7538 33.4891C14.7785 33.5917 14.8225 33.6907 14.8858 33.7861C14.9518 33.886 15.0315 33.9666 15.1241 34.0281C15.2148 34.0886 15.3148 34.1289 15.4248 34.1491C15.5348 34.1683 15.6484 34.1637 15.7658 34.1344C15.8813 34.1069 15.9986 34.0537 16.1178 33.9731C16.2158 33.9071 16.3011 33.8273 16.3744 33.7347C16.4459 33.6412 16.4973 33.5404 16.5284 33.4304C16.5605 33.3186 16.5669 33.1994 16.5468 33.0747C16.5275 32.9482 16.4753 32.8199 16.3891 32.6897C16.3038 32.5632 16.2021 32.4615 16.0848 32.3854C15.9674 32.3102 15.8418 32.2626 15.7071 32.2424L15.6778 32.3964C15.7438 32.4138 15.8043 32.4312 15.8574 32.4477C15.9115 32.4651 15.9601 32.4862 16.0041 32.5101C16.0463 32.5348 16.0866 32.5632 16.1251 32.5944C16.1645 32.6265 16.2012 32.6677 16.2351 32.7191C16.2718 32.7731 16.3029 32.8382 16.3268 32.9134C16.3515 32.9867 16.3598 33.0637 16.3524 33.1444C16.3451 33.2251 16.3158 33.3094 16.2644 33.3974C16.2113 33.4836 16.1242 33.5661 16.0041 33.6467L15.2488 32.5284ZM15.8831 33.7274C15.8052 33.7806 15.7236 33.8246 15.6374 33.8594C15.5522 33.8933 15.4706 33.9116 15.3918 33.9144C15.3111 33.9162 15.2359 33.9016 15.1644 33.8704C15.0938 33.8411 15.0352 33.7906 14.9884 33.7201C14.8931 33.5807 14.8738 33.4359 14.9298 33.2837C14.9866 33.1325 15.1094 32.9922 15.3001 32.8621L15.8831 33.7274Z" fill="white"/>
<path d="M12.363 29.8909L12.4547 30.1769L13.4117 29.8652L13.4153 29.8799C13.364 29.9221 13.3255 29.9679 13.298 30.0192C13.2687 30.0706 13.2503 30.1237 13.243 30.1769C13.2338 30.231 13.2311 30.286 13.2357 30.3419C13.2412 30.3987 13.2522 30.4537 13.2687 30.5069C13.3053 30.6224 13.3603 30.7196 13.4337 30.8002C13.507 30.8809 13.5941 30.9432 13.694 30.9872C13.7921 31.0331 13.9021 31.0569 14.024 31.0569C14.1441 31.0587 14.2715 31.0386 14.4053 30.9946C14.5401 30.9506 14.6565 30.8928 14.7537 30.8222C14.849 30.7489 14.9251 30.6646 14.981 30.5692C15.0351 30.4739 15.0681 30.3731 15.08 30.2649C15.0901 30.1576 15.0763 30.0467 15.0397 29.9312C14.9544 29.6672 14.7922 29.527 14.552 29.5096L14.5483 29.4949L14.8233 29.4069L14.7317 29.1209L12.363 29.8909ZM14.1487 29.6269C14.222 29.6031 14.2972 29.593 14.3723 29.5976C14.4457 29.6003 14.5144 29.6141 14.5777 29.6379C14.6391 29.6626 14.6932 29.7002 14.739 29.7516C14.7857 29.8011 14.8197 29.857 14.8417 29.9202C14.8664 29.9936 14.8765 30.066 14.871 30.1366C14.8637 30.2081 14.8398 30.2759 14.7977 30.3419C14.7564 30.4079 14.695 30.4702 14.6143 30.5289C14.5337 30.5857 14.4301 30.6343 14.3027 30.6756C14.1762 30.7177 14.0634 30.7397 13.9653 30.7416C13.8654 30.7416 13.7783 30.7269 13.705 30.6976C13.6317 30.6664 13.5721 30.6233 13.5253 30.5692C13.4795 30.5161 13.4447 30.4537 13.4227 30.3822C13.4034 30.3217 13.397 30.2576 13.4043 30.1916C13.4098 30.1256 13.4318 30.0632 13.4703 30.0046C13.507 29.9459 13.5574 29.8927 13.6207 29.8432C13.6848 29.7919 13.7627 29.7516 13.8553 29.7222L14.1487 29.6269Z" fill="white"/>
<path d="M11.8957 25.9328L11.903 26.2334L12.9077 26.2004V26.2151C12.8472 26.2426 12.7968 26.2765 12.7573 26.3178C12.7161 26.3572 12.6831 26.4021 12.6583 26.4534C12.6345 26.5029 12.6171 26.5552 12.607 26.6111C12.5978 26.6679 12.5923 26.7239 12.5923 26.7798C12.5978 26.8999 12.6235 27.0089 12.6693 27.1061C12.7161 27.2042 12.7812 27.2885 12.8637 27.3591C12.9471 27.4306 13.0461 27.4838 13.1607 27.5204C13.2762 27.5553 13.4045 27.5699 13.5457 27.5644C13.6878 27.5599 13.8161 27.5369 13.9307 27.4948C14.0434 27.4508 14.1397 27.3912 14.2203 27.3151C14.2992 27.2399 14.3588 27.1519 14.4 27.0511C14.4422 26.9512 14.4596 26.8412 14.455 26.7211C14.4477 26.4424 14.3303 26.2619 14.103 26.1784V26.1638L14.3927 26.1528L14.3853 25.8521L11.8957 25.9328ZM13.6813 26.1748C13.7602 26.1729 13.8344 26.1839 13.905 26.2078C13.9765 26.2325 14.0388 26.2655 14.092 26.3068C14.1433 26.3489 14.1855 26.4003 14.2167 26.4608C14.2488 26.5194 14.2662 26.5836 14.268 26.6514C14.2708 26.7275 14.2598 26.7999 14.235 26.8678C14.2084 26.9338 14.1672 26.9943 14.1103 27.0474C14.0517 27.0988 13.9765 27.1409 13.883 27.1721C13.7877 27.2042 13.6731 27.2225 13.5383 27.2271C13.4045 27.2326 13.2908 27.2216 13.1973 27.1941C13.102 27.1675 13.0232 27.1299 12.959 27.0804C12.8958 27.0319 12.8508 26.9741 12.8233 26.9081C12.794 26.8421 12.7784 26.7724 12.7757 26.6991C12.7738 26.6331 12.7848 26.5708 12.8087 26.5121C12.8334 26.4516 12.8728 26.3975 12.926 26.3508C12.9773 26.3022 13.0415 26.2628 13.1167 26.2334C13.19 26.2041 13.2762 26.1885 13.3733 26.1858L13.6813 26.1748Z" fill="white"/>
<path d="M12.8897 23.6229L14.6277 23.9932L14.69 23.6999L12.952 23.3296L12.8897 23.6229ZM12.3287 23.5532C12.3782 23.5633 12.4259 23.5551 12.4717 23.5276C12.5184 23.4982 12.5469 23.4579 12.556 23.4066C12.5661 23.3552 12.556 23.3067 12.5267 23.2599C12.4974 23.2141 12.4589 23.1857 12.4094 23.1756C12.3562 23.1637 12.3067 23.1737 12.2627 23.2049C12.2169 23.2342 12.1884 23.2746 12.1784 23.3259C12.1692 23.3772 12.1784 23.4249 12.2077 23.4689C12.2352 23.5129 12.2755 23.5413 12.3287 23.5532Z" fill="white"/>
<path d="M15.867 20.5649L14.8293 20.0663C14.7908 20.0498 14.7358 20.0287 14.6643 20.0039C14.5937 19.9773 14.5167 19.9663 14.4333 19.9709C14.3508 19.9764 14.2674 20.0058 14.184 20.0589C14.0987 20.113 14.0217 20.2111 13.953 20.3523C13.9218 20.4109 13.9007 20.4861 13.8906 20.5759C13.8815 20.6667 13.8961 20.7684 13.9346 20.8803L13.9603 20.9499L13.953 20.9646L13.7513 20.8693L13.623 21.1406L15.2253 21.9069L15.3536 21.6356L14.36 21.1589C14.2775 21.1204 14.2115 21.0746 14.162 21.0233C14.1134 20.9719 14.0795 20.916 14.0593 20.8546C14.0373 20.7941 14.03 20.7327 14.0373 20.6713C14.0446 20.608 14.0621 20.5493 14.0886 20.4953C14.1308 20.4054 14.1803 20.344 14.239 20.3119C14.2976 20.2808 14.3554 20.2643 14.4113 20.2643C14.4681 20.2624 14.5213 20.2707 14.5726 20.2899C14.6221 20.3073 14.657 20.3211 14.679 20.3303L15.735 20.8363L15.867 20.5649Z" fill="white"/>
<path d="M17.7707 18.2708C17.8514 18.3423 17.911 18.4129 17.9504 18.4834C17.9889 18.5522 18.0109 18.6191 18.0164 18.6851C18.021 18.7511 18.0109 18.8162 17.9871 18.8794C17.9623 18.9409 17.9257 18.9968 17.8771 19.0481C17.7964 19.1434 17.7057 19.1984 17.6057 19.2131C17.5049 19.2278 17.3949 19.2241 17.2757 19.2021V19.4661C17.2996 19.4661 17.3362 19.4643 17.3857 19.4624C17.4371 19.4597 17.493 19.4487 17.5544 19.4294C17.6149 19.412 17.6809 19.3836 17.7524 19.3451C17.823 19.3066 17.8899 19.2498 17.9541 19.1764C18.0732 19.0426 18.1502 18.9161 18.1851 18.7988C18.2217 18.6814 18.2272 18.5714 18.2034 18.4688C18.1814 18.3643 18.1356 18.2671 18.0677 18.1791C18.0017 18.0893 17.9229 18.0031 17.8331 17.9224L16.5277 16.7638L16.3261 16.9911L16.5351 17.1781L16.5277 17.1891C16.4324 17.1433 16.3334 17.1369 16.2307 17.1708C16.1262 17.2029 16.0236 17.2753 15.9227 17.3871C15.8421 17.4779 15.7862 17.5759 15.7541 17.6804C15.7202 17.7831 15.7101 17.8885 15.7247 17.9958C15.7376 18.1012 15.7742 18.2066 15.8347 18.3111C15.8934 18.4138 15.9759 18.5128 16.0804 18.6081C16.1886 18.7016 16.2986 18.7722 16.4104 18.8208C16.5204 18.8675 16.6286 18.8923 16.7367 18.8941C16.844 18.8941 16.9467 18.8721 17.0447 18.8281C17.1419 18.7841 17.2317 18.7172 17.3124 18.6264C17.4004 18.5265 17.4572 18.4229 17.4847 18.3148C17.5113 18.2048 17.4957 18.0975 17.4371 17.9921L17.4444 17.9811L17.7707 18.2708ZM17.0887 17.6694C17.1639 17.7354 17.2217 17.8042 17.2611 17.8748C17.2996 17.9435 17.3234 18.0132 17.3307 18.0838C17.3399 18.1525 17.3353 18.2185 17.3161 18.2818C17.2987 18.3432 17.2684 18.3973 17.2244 18.4431C17.1877 18.4853 17.1401 18.5256 17.0814 18.5641C17.0227 18.6008 16.954 18.6219 16.8761 18.6264C16.7972 18.6292 16.7111 18.6118 16.6157 18.5751C16.5186 18.5366 16.4104 18.4642 16.2931 18.3588C16.1684 18.2488 16.0841 18.1452 16.0401 18.0471C15.9942 17.9472 15.9722 17.8564 15.9741 17.7758C15.9741 17.6951 15.9887 17.6273 16.0181 17.5704C16.0474 17.5145 16.0749 17.4733 16.0987 17.4458C16.1528 17.3871 16.2124 17.3468 16.2784 17.3248C16.3444 17.3028 16.4132 17.2954 16.4837 17.3028C16.5552 17.3101 16.6258 17.3312 16.6964 17.3651C16.767 17.3999 16.833 17.4439 16.8944 17.4971L17.0887 17.6694Z" fill="white"/>
<path d="M22.646 14.8842C22.5434 15.0308 22.4425 15.139 22.3454 15.2068C22.25 15.2728 22.1556 15.3233 22.063 15.3572C21.9255 15.4039 21.799 15.4268 21.6817 15.4268C21.5644 15.4268 21.4589 15.4085 21.3664 15.3718C21.2729 15.3352 21.1949 15.2838 21.1317 15.2178C21.0703 15.1518 21.0254 15.0785 20.996 14.9978C20.9667 14.9153 20.9557 14.8319 20.963 14.7485C20.9704 14.666 20.9914 14.5835 21.0254 14.5028C21.062 14.4203 21.1097 14.3406 21.1684 14.2645C21.227 14.1866 21.293 14.1096 21.3664 14.0335C21.2582 13.9583 21.1656 13.8887 21.0877 13.8245C21.0098 13.7585 20.9539 13.6778 20.919 13.5825C20.8998 13.5266 20.8888 13.4652 20.886 13.3992C20.8842 13.3332 20.8961 13.2708 20.9227 13.2122C20.9474 13.1517 20.9869 13.0939 21.04 13.0398C21.0932 12.9839 21.1629 12.9408 21.249 12.9115C21.3196 12.8877 21.3893 12.8767 21.458 12.8785C21.5259 12.8785 21.59 12.8923 21.6487 12.9188C21.7092 12.9463 21.7633 12.9848 21.81 13.0362C21.8559 13.0857 21.8925 13.1462 21.92 13.2195C21.9539 13.3148 21.9539 13.4193 21.92 13.5312C21.8879 13.6412 21.8073 13.7613 21.678 13.8905L22.657 14.5358C22.6937 14.424 22.7093 14.3039 22.7047 14.1765C22.6992 14.0473 22.6689 13.8923 22.613 13.7108L22.8697 13.6228C22.9036 13.7475 22.9192 13.8639 22.9174 13.9712C22.9174 14.0793 22.9082 14.1765 22.8917 14.2645C22.877 14.3525 22.8587 14.4286 22.8367 14.4918C22.8147 14.5533 22.7973 14.5973 22.7854 14.6238L23.2254 14.9062L22.8697 15.0308L22.646 14.8842ZM21.3187 13.0545C21.2692 13.0719 21.2307 13.0948 21.2014 13.1242C21.1739 13.1535 21.1537 13.1856 21.139 13.2195C21.1244 13.2543 21.1179 13.2892 21.1207 13.3258C21.1253 13.3625 21.1335 13.3983 21.1464 13.4322C21.1729 13.5083 21.2234 13.5752 21.2967 13.6338C21.3719 13.6925 21.4599 13.7539 21.5607 13.8172C21.5873 13.7933 21.6129 13.7613 21.6377 13.7218C21.6615 13.6806 21.6826 13.6366 21.7 13.5898C21.7165 13.5413 21.7266 13.4899 21.7294 13.4358C21.7312 13.3827 21.7229 13.3286 21.7037 13.2745C21.6936 13.2452 21.6762 13.214 21.6524 13.1792C21.6304 13.1453 21.6029 13.1159 21.5717 13.0912C21.5424 13.0673 21.5057 13.0499 21.4617 13.0398C21.4195 13.0307 21.3719 13.0353 21.3187 13.0545ZM21.491 14.1215C21.359 14.2663 21.2756 14.391 21.2417 14.4955C21.2096 14.5982 21.2124 14.6999 21.249 14.7998C21.2802 14.8906 21.3269 14.9648 21.3884 15.0235C21.4516 15.0803 21.5222 15.1225 21.601 15.1518C21.6789 15.1812 21.7596 15.1949 21.843 15.1922C21.9283 15.1903 22.0089 15.1766 22.085 15.1518C22.1015 15.1445 22.1272 15.1326 22.162 15.1152C22.1987 15.0987 22.2372 15.0776 22.2794 15.0528C22.3234 15.0263 22.3655 14.9933 22.4077 14.9538C22.4517 14.9126 22.4902 14.864 22.525 14.8072L21.491 14.1215Z" fill="white"/>
<path d="M28.9498 14.1084L28.9608 14.0314C28.9873 13.8756 28.9873 13.7372 28.9608 13.6171C28.936 13.4952 28.892 13.3898 28.8288 13.3018C28.7646 13.2119 28.6867 13.1404 28.5941 13.0891C28.5006 13.0359 28.397 12.9993 28.2824 12.9791C28.1651 12.9598 28.0523 12.9626 27.9451 12.9864C27.8369 13.0084 27.7379 13.0524 27.6481 13.1184C27.5601 13.1844 27.4849 13.2706 27.4244 13.3751C27.3658 13.4778 27.3236 13.6006 27.2998 13.7418C27.2823 13.8591 27.2823 13.9764 27.2998 14.0938C27.3163 14.2093 27.3548 14.3165 27.4134 14.4164C27.4721 14.5173 27.5537 14.6034 27.6591 14.6768C27.7636 14.7501 27.8938 14.7987 28.0478 14.8234C28.1963 14.8473 28.3383 14.8436 28.4731 14.8124C28.6097 14.7803 28.7316 14.7226 28.8398 14.6401L28.7481 14.5081C28.6913 14.5448 28.6381 14.5768 28.5868 14.6034C28.5373 14.6328 28.4887 14.6548 28.4401 14.6694C28.3933 14.6859 28.3448 14.696 28.2934 14.6988C28.2439 14.7033 28.1908 14.7006 28.1321 14.6914C28.0661 14.6813 27.9973 14.6593 27.9268 14.6254C27.858 14.5943 27.7966 14.5475 27.7434 14.4861C27.6893 14.4256 27.649 14.3458 27.6224 14.2478C27.5949 14.1478 27.594 14.0268 27.6188 13.8848L28.9498 14.1084ZM27.6408 13.7454C27.6554 13.6501 27.6793 13.5612 27.7141 13.4778C27.748 13.3925 27.7911 13.3192 27.8424 13.2578C27.8956 13.1973 27.9579 13.1514 28.0294 13.1221C28.1 13.0909 28.177 13.0818 28.2604 13.0964C28.4263 13.1239 28.5446 13.2101 28.6161 13.3568C28.6867 13.5034 28.7041 13.6904 28.6674 13.9178L27.6408 13.7454Z" fill="white"/>
<path d="M30.9097 13.7068L30.8401 15.6318L31.0307 15.7234L32.4314 14.4034L32.2811 14.3374L31.1591 15.3934L31.1407 15.3861L31.1957 13.8388L30.9097 13.7068Z" fill="white"/>
<path d="M34.6978 17.2358L34.7455 17.1771C34.8482 17.0543 34.9187 16.9333 34.9582 16.8141C34.9967 16.6968 35.0104 16.5859 34.9985 16.4805C34.9884 16.3732 34.9563 16.2715 34.9032 16.1761C34.8491 16.0808 34.7785 15.9965 34.6905 15.9231C34.5997 15.848 34.5017 15.7939 34.3972 15.7618C34.2945 15.7279 34.1882 15.7169 34.0782 15.7288C33.9682 15.7389 33.86 15.7746 33.7555 15.8351C33.6528 15.8938 33.5547 15.9781 33.4622 16.0881C33.3861 16.1789 33.3265 16.2788 33.2825 16.3888C33.2385 16.4988 33.2165 16.6115 33.2165 16.7261C33.2165 16.8435 33.2431 16.959 33.2972 17.0745C33.3503 17.189 33.4374 17.2963 33.5575 17.3971C33.6721 17.4943 33.7967 17.563 33.9315 17.6025C34.0653 17.6437 34.2001 17.6556 34.3348 17.6391L34.3202 17.4815C34.2542 17.4833 34.1927 17.4833 34.1368 17.4815C34.08 17.4815 34.0268 17.475 33.9755 17.4631C33.926 17.453 33.8783 17.4375 33.8325 17.4155C33.7885 17.3953 33.7427 17.366 33.6968 17.3275C33.6455 17.2853 33.5978 17.233 33.5538 17.1698C33.5098 17.1056 33.4787 17.0341 33.4622 16.9535C33.4475 16.8728 33.453 16.783 33.4805 16.6858C33.5071 16.5886 33.5667 16.4832 33.6602 16.3705L34.6978 17.2358ZM33.7518 16.2605C33.8123 16.1899 33.8783 16.1266 33.9498 16.0698C34.0232 16.0111 34.0974 15.9699 34.1735 15.9451C34.2487 15.9213 34.3247 15.914 34.4008 15.9231C34.476 15.9305 34.5475 15.9616 34.6135 16.0148C34.7427 16.123 34.8014 16.2586 34.7895 16.4218C34.7767 16.5831 34.6978 16.7518 34.5512 16.9278L33.7518 16.2605Z" fill="white"/>
<path d="M36.0961 20.2898L37.0458 19.6408C37.0825 19.616 37.1283 19.5794 37.1851 19.5308C37.241 19.4813 37.2878 19.4208 37.3245 19.3474C37.363 19.2741 37.3804 19.1861 37.3758 19.0834C37.373 18.9826 37.3281 18.8689 37.2401 18.7424C37.2035 18.6838 37.1485 18.6279 37.0751 18.5738C37.0018 18.5206 36.9065 18.4839 36.7891 18.4638L36.7158 18.4454L36.7048 18.4344L36.8918 18.3061L36.7231 18.0568L35.2565 19.0614L35.4251 19.3108L36.3345 18.6911C36.4096 18.6379 36.482 18.6031 36.5508 18.5884C36.6214 18.5719 36.6874 18.5692 36.7488 18.5811C36.812 18.5939 36.868 18.6178 36.9175 18.6544C36.9688 18.6911 37.011 18.7342 37.0458 18.7828C37.1017 18.8653 37.1283 18.9404 37.1265 19.0064C37.1265 19.0724 37.1118 19.1311 37.0825 19.1824C37.055 19.2338 37.021 19.275 36.9798 19.3071C36.9404 19.341 36.9101 19.3658 36.8881 19.3804L35.9238 20.0404L36.0961 20.2898Z" fill="white"/>
<path d="M38.3396 21.1406L38.4716 21.0893L38.578 21.3789L39.0913 21.1919L39.1976 21.4779L38.6843 21.6649L38.831 22.0683L38.699 22.1196L38.5523 21.7163L37.4413 22.1233C37.4166 22.1324 37.3863 22.1453 37.3496 22.1599C37.3148 22.1764 37.2855 22.1966 37.2616 22.2186C37.2369 22.2406 37.2186 22.2663 37.2066 22.2956C37.1966 22.3268 37.1993 22.3634 37.214 22.4056C37.2332 22.4588 37.269 22.4954 37.3203 22.5156C37.3735 22.5349 37.4276 22.5486 37.4816 22.5559L37.3826 22.7686C37.2305 22.6999 37.1306 22.5972 37.082 22.4606C37.06 22.4019 37.0471 22.3405 37.0453 22.2773C37.0453 22.2159 37.0572 22.1563 37.082 22.0976C37.1086 22.0408 37.1489 21.9858 37.203 21.9326C37.2589 21.8813 37.3295 21.8391 37.4156 21.8079L38.446 21.4303L38.3396 21.1406Z" fill="white"/>
<path d="M39.0586 25.2649C39.1246 25.2576 39.1814 25.2338 39.2309 25.1953C39.2823 25.1559 39.3235 25.1045 39.3556 25.0413C39.3868 24.9799 39.4088 24.9093 39.4216 24.8286C39.4363 24.7498 39.4372 24.6673 39.4253 24.5793C39.4152 24.4986 39.3959 24.4225 39.3666 24.3519C39.3373 24.2832 39.2979 24.2245 39.2493 24.1759C39.1998 24.1292 39.1429 24.0934 39.0769 24.0696C39.0109 24.0476 38.9358 24.0412 38.8533 24.0513C38.7405 24.0659 38.6534 24.1026 38.5929 24.1613C38.5343 24.2199 38.4884 24.2905 38.4573 24.3739C38.4279 24.4564 38.4069 24.5444 38.3949 24.6379C38.3821 24.7333 38.3656 24.8213 38.3436 24.9019C38.3234 24.9844 38.2941 25.0541 38.2556 25.1109C38.2189 25.1696 38.1612 25.2035 38.0833 25.2136C38.0484 25.2154 38.0136 25.2136 37.9769 25.2063C37.9421 25.2008 37.9082 25.1852 37.8743 25.1586C37.8422 25.1339 37.8129 25.0981 37.7863 25.0523C37.7588 25.0055 37.7404 24.9441 37.7313 24.8689C37.7212 24.7754 37.7258 24.6948 37.7459 24.6269C37.7679 24.5582 37.7954 24.5004 37.8303 24.4546C37.8669 24.4079 37.9045 24.3721 37.9439 24.3483C37.9852 24.3263 38.0209 24.3125 38.0503 24.3079L38.0246 24.0806C37.9586 24.0879 37.8963 24.1109 37.8376 24.1503C37.7789 24.1888 37.7285 24.2419 37.6873 24.3079C37.6451 24.3758 37.6149 24.4564 37.5956 24.5499C37.5754 24.6453 37.5736 24.7525 37.5883 24.8726C37.6121 25.0899 37.6799 25.2475 37.7899 25.3456C37.8999 25.4428 38.0319 25.4822 38.1859 25.4629C38.3005 25.4501 38.3885 25.4134 38.4499 25.3529C38.5104 25.2915 38.5572 25.2182 38.5893 25.1329C38.6204 25.0495 38.6443 24.9588 38.6589 24.8616C38.6736 24.7635 38.6892 24.6728 38.7066 24.5903C38.7259 24.5096 38.7524 24.4399 38.7873 24.3813C38.8212 24.3226 38.8734 24.2878 38.9449 24.2786C38.9761 24.2759 39.0091 24.2786 39.0439 24.2859C39.0806 24.2933 39.1145 24.3089 39.1466 24.3336C39.1805 24.3574 39.2099 24.3923 39.2346 24.4363C39.2612 24.4821 39.2795 24.5399 39.2896 24.6086C39.2969 24.6792 39.2933 24.7415 39.2786 24.7956C39.2658 24.8515 39.2465 24.8992 39.2199 24.9386C39.1952 24.9771 39.1659 25.0083 39.1319 25.0303C39.0999 25.0523 39.0678 25.0642 39.0366 25.0669L39.0586 25.2649Z" fill="white"/>
</g>
<mask id="mask3_1472_356" style="mask-type:luminance" maskUnits="userSpaceOnUse" x="59" y="60" width="6" height="7">
<path d="M59.2497 60.9308H64.2987V66.0348H59.2497V60.9308Z" fill="white"/>
</mask>
<g mask="url(#mask3_1472_356)">
<path d="M61.7577 60.9308C61.5129 62.9961 61.3149 63.1941 59.2497 63.4388C59.2533 63.4397 59.2579 63.4397 59.2625 63.4407C61.3158 63.6845 61.5138 63.8862 61.7577 65.9468C62.0015 63.8816 62.1995 63.6836 64.2657 63.4388C62.1995 63.1941 62.0015 62.9961 61.7577 60.9308Z" fill="white"/>
</g>
<mask id="mask4_1472_356" style="mask-type:luminance" maskUnits="userSpaceOnUse" x="23" y="22" width="6" height="6">
<path d="M23.287 22.5051H28.391V27.6091H23.287V22.5051Z" fill="white"/>
</mask>
<g mask="url(#mask4_1472_356)">
<path d="M25.795 22.5051C25.5503 24.5703 25.3523 24.7683 23.287 25.0131C23.2907 25.0131 23.2953 25.014 23.2989 25.014H23.2998C25.3532 25.2578 25.5503 25.4595 25.795 27.5211C26.0388 25.4549 26.2368 25.2569 28.303 25.0131C26.2368 24.7683 26.0388 24.5703 25.795 22.5051Z" fill="white"/>
</g>
</g>
<defs>
<clipPath id="clip0_1472_356">
<rect width="88" height="88" fill="white"/>
</clipPath>
</defs>
</svg>
