<svg width="36" height="55" viewBox="0 0 36 55" fill="none" xmlns="http://www.w3.org/2000/svg">
<path d="M1.11194e-05 49.0789C5.67969 49.1311 17.3811 40.4555 22.4223 32.7147C27.879 24.3358 29.2753 18.72 29.0446 5.75027C29.7078 6.25423 30.2109 6.67136 30.7502 7.03683C31.3375 7.43484 31.9361 7.83374 32.5778 8.12695C32.7778 8.21833 33.2563 8.04519 33.3829 7.85087C33.5037 7.66539 33.4423 7.19024 33.272 7.02173C31.7986 5.56354 30.2933 4.13485 28.773 2.72227C28.2655 2.25074 27.7254 2.24942 27.2701 2.79472C25.5969 4.79867 23.8962 6.78156 22.2691 8.82077C21.8854 9.30166 21.7489 9.9715 21.4292 10.7161C23.2656 10.8837 23.6843 9.5366 24.5292 8.83507C25.4222 8.09367 26.1741 7.19424 27.1697 6.17796C27.8517 10.0667 27.7616 13.6224 27.1078 17.1222C24.7058 29.9792 17.2729 39.3083 5.9709 45.8645C4.49945 46.7181 2.91989 47.4021 1.40162 48.1841C0.991323 48.3955 0.62206 48.6783 1.11194e-05 49.0789Z" fill="#EEEEEE"/>
</svg>
