<svg width="30" height="30" viewBox="0 0 30 30" fill="none" xmlns="http://www.w3.org/2000/svg">
<path d="M13.3584 0.00488281C13.8455 0.0041204 14.3894 0.00488265 15 0.00488281C19.8851 0.00488281 20.4646 0.0217037 22.3936 0.109375C24.1775 0.190959 25.146 0.48976 25.791 0.740234C26.6448 1.07187 27.2536 1.46808 27.8936 2.1084C28.5339 2.7488 28.9303 3.3591 29.2627 4.21289C29.5131 4.8572 29.8124 5.82611 29.8936 7.61035C29.9812 9.53924 30 10.1194 30 15.0029C30 19.886 29.9812 20.4658 29.8936 22.3945C29.812 24.1788 29.5131 25.1477 29.2627 25.792C28.9311 26.6458 28.5339 27.2535 27.8936 27.8936C27.2531 28.534 26.6453 28.931 25.791 29.2627C25.1468 29.5143 24.1774 29.812 22.3936 29.8936C20.465 29.9812 19.8851 30 15 30C10.1144 30 9.53528 29.9812 7.60645 29.8936C5.82269 29.8112 4.85435 29.5132 4.20898 29.2627C3.3551 28.931 2.74491 28.534 2.10449 27.8936C1.46412 27.2531 1.06774 26.6444 0.735352 25.79C0.484929 25.1458 0.186671 24.1775 0.105469 22.3936C0.0177938 20.4645 3.46524e-07 19.8847 0 14.998C0 10.1112 0.0177929 9.53458 0.105469 7.60547C0.187043 5.8214 0.484918 4.85307 0.735352 4.20801C1.06697 3.35408 1.46416 2.74396 2.10449 2.10352C2.7449 1.46302 3.35511 1.06682 4.20898 0.734375C4.85397 0.482752 5.82243 0.184507 7.60645 0.102539C9.29433 0.0262926 9.9485 0.00381364 13.3584 0V0.00488281ZM14.5166 5.62109C9.55213 5.87283 5.6037 9.97832 5.60352 15.0059C5.60352 20.1957 9.81079 24.4023 15 24.4023C20.1893 24.4023 24.3955 20.1958 24.3955 15.0059C24.3953 9.8162 20.1891 5.60852 15 5.6084L14.5166 5.62109ZM24.7676 3.04297C23.5554 3.04297 22.5713 4.02557 22.5713 5.23828C22.5713 6.45063 23.5554 7.43457 24.7676 7.43457C25.9797 7.4344 26.9629 6.45052 26.9629 5.23828C26.9629 4.02606 25.9796 3.04217 24.7676 3.04199V3.04297Z" fill="#092D35"/>
<path fill-rule="evenodd" clip-rule="evenodd" d="M15.0001 8.90674C18.3684 8.90674 21.0993 11.6376 21.0993 15.0067C21.0993 18.3754 18.3684 21.1066 15.0001 21.1066C11.6315 21.1066 8.901 18.3754 8.901 15.0067C8.901 11.6376 11.6315 8.90674 15.0001 8.90674V8.90674Z" fill="#092D35"/>
</svg>
