<svg width="34" height="30" viewBox="0 0 34 30" fill="none" xmlns="http://www.w3.org/2000/svg">
<path d="M3.5024 29.7631H29.8574C32.5524 29.7631 34.2324 26.8406 32.8849 24.5131L19.7074 1.74563C18.3599 -0.581875 14.9999 -0.581875 13.6524 1.74563L0.4749 24.5131C-0.8726 26.8406 0.807399 29.7631 3.5024 29.7631ZM16.6799 17.5131C15.7174 17.5131 14.9299 16.7256 14.9299 15.7631V12.2631C14.9299 11.3006 15.7174 10.5131 16.6799 10.5131C17.6424 10.5131 18.4299 11.3006 18.4299 12.2631V15.7631C18.4299 16.7256 17.6424 17.5131 16.6799 17.5131ZM18.4299 24.5131H14.9299V21.0131H18.4299V24.5131Z" fill="#D50000"/>
</svg>
