<svg width="355" height="355" viewBox="0 0 355 355" fill="none" xmlns="http://www.w3.org/2000/svg">
<rect width="355" height="355" fill="white"/>
<path d="M41.5058 169.608C37.9984 140.3 39.5763 110.868 45.9894 81.8932C46.9213 77.6847 50.7784 81.5133 77.9696 75.4233C80.0499 74.9583 82.1124 74.4719 84.1555 73.9696C85.0714 72.2745 86.0867 70.5864 87.2156 68.925C63.5388 74.5465 44.9581 76.4564 44.2961 77.0332C43.121 78.0556 42.7554 78.4887 41.9335 82.0103C34.0206 115.931 33.8147 151.869 40.171 186.316C40.4851 180.837 40.9307 175.208 41.504 169.607L41.5058 169.608Z" fill="#092D35"/>
<path d="M306.792 99.487C302.142 95.0353 294.302 90.2623 290.972 89.0784C286.335 87.4276 245.159 83.48 186.864 48.7522C165.082 35.7769 167.795 33.4836 159.694 39.279C156.858 41.3078 153.888 43.2301 150.816 45.0495C152.154 45.2536 153.482 45.4915 154.801 45.7648C165.461 39.1618 163.834 37.7951 166.344 39.6766C191.74 58.7223 237.12 81.2648 281.115 90.2197C285.861 91.1853 288.527 89.8345 287.78 94.2827C286.673 100.873 284.067 140.75 264.963 187.16C239.976 247.859 188.398 303.646 139.585 329.516C135.881 331.479 132.146 334.174 127.089 330.225C115.545 321.208 107.385 314.12 96.7227 301.411C78.1899 279.321 72.0697 268.575 63.9243 249.343C62.6303 248.85 61.2564 248.321 59.698 247.737C59.5169 247.669 59.3377 247.602 59.1602 247.534C71.6917 275.484 88.9056 300.508 109.987 320.096C113.928 323.758 141.456 347.648 146.945 346.05C163.425 341.254 209.781 310.339 241.994 270.49C300.182 198.507 310.067 102.627 306.79 99.4905L306.792 99.487ZM304.456 101.901C296.755 194.939 246.76 284.857 162.664 335.029C144.387 345.933 145.608 344.283 141.872 341.506C140.924 340.802 135.679 336.845 135.547 336.712C133.953 335.108 133.408 337.136 146.114 330.086C189.273 306.14 226.101 265.079 250.116 225.414C270.174 192.288 279.18 164.537 285.679 132.285C294.539 88.3169 288.474 90.9386 294.736 94.4176C297.869 96.1571 300.709 98.3421 303.686 100.318C304.483 100.847 304.478 100.864 304.456 101.901Z" fill="#092D35"/>
<path d="M112.177 106.232C171.778 107.76 171.037 115.164 171.765 108.17C174.138 85.3455 161.596 72.5229 141.333 71.3514C131.119 76.3889 120.741 80.1998 111.016 83.1055C108.44 86.6377 106.504 90.9137 105.084 95.8748C104.049 99.4923 103.747 102.133 103.754 105.366C103.756 106.528 103.678 106.014 112.177 106.232Z" fill="#092D35"/>
<path d="M73.1461 107.51C75.8228 107.46 74.9602 106.136 75.0844 105.497C75.5672 103.014 76.1015 97.428 77.825 90.5942C68.9483 92.0355 63.2026 92.5947 62.5796 93.0597C61.8873 93.5745 61.2838 94.2099 61.0974 95.1329C59.9259 100.898 58.971 106.557 58.2148 112.105C62.6062 109.388 68.7051 107.593 73.1461 107.51Z" fill="#092D35"/>
<path d="M263.228 103.818C260.972 103.035 234.305 99.5456 199.591 82.2873C199.128 82.0583 198.674 81.8293 198.223 81.6039C198.844 83.5759 199.35 85.6225 199.731 87.7418C203.431 108.277 196.971 115.063 200.015 115.895C215.085 120.022 222.389 122.74 225.148 139.714C228.391 159.674 220.73 211.001 213.679 239.229C236.536 206.883 259.112 152.41 265.121 107.002C265.151 104.729 264.92 104.404 263.23 103.818H263.228Z" fill="#092D35"/>
<path d="M171.347 265.029C150.349 265.029 133.982 266.763 86.4844 255.974C107.728 291.056 132.886 309.067 136.61 307.931C145.794 305.13 158.564 294.938 163.837 290.93C177.647 280.436 186.429 272.242 194.669 262.973C187.194 264.564 178.381 264.638 171.347 265.029Z" fill="#092D35"/>
<path d="M225.149 139.714C222.39 122.74 215.086 120.022 200.017 115.895C196.972 115.061 203.432 108.277 199.733 87.7418C192.72 48.8072 143.934 34.7918 109.144 50.513C78.3494 64.429 76.4945 98.2356 75.0851 105.499C74.9609 106.138 75.8235 107.46 73.1468 107.51C66.4675 107.636 56.0358 111.63 53.3112 116.813C40.9235 140.381 36.3032 213.579 42.1021 231.235C43.7369 236.212 42.9505 241.471 59.6977 247.737C68.2478 250.935 71.2618 252.501 85.7387 255.806C133.815 266.783 150.242 265.031 171.35 265.031C184.926 264.278 205.13 264.699 209.547 253.135C217.161 233.192 229.05 163.735 225.147 139.716L225.149 139.714ZM78.9955 106.509C79.102 101.624 82.9803 84.4119 88.5396 74.7825C94.2906 64.8195 100.042 59.9595 107.841 55.5504C117.577 50.0479 135.653 47.9037 137.81 47.8611C150.253 47.6144 162.426 51.3383 172.043 56.4379C185.92 63.7953 191.658 72.507 194.471 83.6469C197.011 93.7058 196.932 105.717 195.561 113.213C195.043 116.044 195.46 114.67 176.207 111.901C175.525 111.804 175.36 111.63 175.463 110.861C182.449 58.733 118.906 56.8089 104.179 87.1685C100.011 95.7595 100.216 105.888 100.208 105.936C100.033 106.928 92.0169 106.207 92.0169 106.479C78.4452 106.479 78.9795 107.292 78.9955 106.509ZM171.768 108.17C171.04 115.164 171.78 107.76 112.179 106.232C103.68 106.014 103.757 106.53 103.755 105.366C103.75 102.134 104.05 99.4905 105.084 95.8749C109.701 79.7366 119.797 70.8296 139.487 71.2769C160.832 71.7615 174.21 84.6604 171.766 108.169L171.768 108.17ZM209.342 239.19C205.894 254.288 206.084 255.692 192.159 258.871C184.556 260.607 150.036 261.442 142.303 260.458C136.651 259.739 136.363 262.615 96.4579 254.317C37.3593 242.03 48.0004 237.176 43.8292 217.411C41.424 163.999 52.5409 124.161 55.8566 119.605C58.5546 115.899 60.8212 115.414 63.0471 113.818C63.7464 113.318 63.4589 113.639 67.0142 112.459C69.5809 111.607 73.5799 111.475 73.6225 111.475C110.244 108.467 141.071 111.55 177.478 116.506C195.476 118.955 216.753 120.691 220.051 134.529C225.518 157.469 214.32 217.413 209.344 239.188L209.342 239.19Z" fill="#092D35"/>
<path d="M106.583 151.702C101.013 161.969 102.857 175.638 113.051 184.536C113.482 184.912 113.651 185.333 113.571 185.878C112.779 191.333 111.533 204.178 111.563 210.969C111.615 222.315 112.092 228.588 121.688 232.64C128.481 235.511 135.567 232.852 138.414 224.025C139.605 220.329 139.681 217.608 141.094 204.798C142.864 188.764 141.479 189.263 143.084 188.567C150.746 185.244 158.173 175.709 157.985 164.432C159.075 139.013 120.025 126.925 106.581 151.7L106.583 151.702ZM122.126 196.471C118.695 228.867 123.55 232.225 118.063 227.839C114.336 224.859 114.174 217.753 114.231 212.562C114.462 191.524 118.333 185.401 116.003 183.358C107.461 175.878 103.111 163.639 110.605 151.521C112.35 148.701 116.361 145.692 116.631 145.436C119.641 142.591 124.212 142.284 122.456 144.224C110.93 156.976 115.36 171.069 123.646 177.482C125.247 178.721 124.047 178.313 122.123 196.469L122.126 196.471Z" fill="#092D35"/>
<path d="M200.585 141.414C200.02 164.351 191.736 255.613 187.954 244.959C186.995 242.261 198.006 143.821 197.935 139.827C197.784 131.364 195.7 130.379 196.951 129.698C197.86 129.202 198.911 130.695 199.239 131.561C200.432 134.71 200.67 138.047 200.586 141.416L200.585 141.414Z" fill="#092D35"/>
<path d="M33.5411 304.24C32.5222 303.894 41.9528 294.181 41.7806 292.378C41.6368 290.869 39.8423 289.998 38.6264 291.079C36.9721 292.552 33.8783 295.809 31.4714 298.264C30.4561 299.301 30.9886 290.763 27.4777 284.202C26.6416 282.64 24.5933 283.013 24.5347 284.911C24.4158 288.777 26.363 299.029 27.0233 302.121C23.6863 301.276 14.096 298.635 14.0161 302.121C13.9984 302.9 14.4439 303.36 15.0439 303.656C22.2325 307.198 24.1637 306.39 23.4111 307.391C19.4032 312.725 18.1305 314.125 17.4419 316.177C16.9502 317.638 17.3372 319.266 18.9506 319.278C20.7167 319.292 21.3024 317.83 25.227 313.089C30.4224 306.812 27.6747 308.461 31.1182 317.988C31.9755 320.359 32.1903 320.954 33.305 320.787C35.2291 320.499 33.9511 314.143 33.5499 310.675C33.3565 309.005 43.0426 314.525 44.4236 310.994C45.5756 308.051 40.4139 306.573 33.5411 304.237V304.24Z" fill="#092D35"/>
<path d="M272.732 29.0532C271.352 28.6325 276.123 26.5167 279.582 21.71C280.58 20.3238 279.328 18.8541 275.926 20.9716C268.914 25.3346 268.827 26.9552 268.618 25.8795C267.855 21.9781 267.443 18.9907 266.216 16.795C264.923 14.4769 261.514 13.7899 262.551 21.142C263.833 30.2212 265.329 26.7013 257.78 27.0865C254.338 27.2622 253.105 29.3354 254.15 30.6986C254.766 31.5027 255.795 31.6607 257.911 32.1115C262.036 32.9902 261.238 31.4459 254.626 37.9371C253.93 38.6205 253.044 40.1452 253.978 41.1907C255.607 43.0136 258.406 40.2215 264.502 35.4219C265.324 34.774 264.642 35.4042 266.653 41.1126C267.328 43.0242 267.747 44.3182 269.138 44.3271C270.31 44.336 271.522 43.0757 271.211 40.7576C269.546 28.361 268.552 36.7549 279.477 33.1872C283.242 31.9571 276.272 30.1324 272.732 29.0532Z" fill="#092D35"/>
<path d="M269.43 326.559C267.987 332.032 276.546 332.25 276.065 327.486C276.388 324.104 270.646 321.944 269.43 326.559Z" fill="#092D35"/>
<path d="M75.2446 8.88568C72.8039 8.73658 65.5442 11.4825 68.1375 16.9034C70.1414 21.0924 75.9634 22.1609 79.3519 18.3731C83.1628 14.1131 79.2827 8.59813 75.2446 8.88568ZM74.3801 17.2655C70.6136 17.5317 69.9923 13.1652 71.3094 12.7161C72.5341 12.299 73.711 11.6653 75.0671 11.7541C78.933 12.0079 77.8006 17.5619 74.3801 17.2655Z" fill="#092D35"/>
<path d="M340.489 209.754C337.599 203.264 327.922 205.79 325.041 209.019C319.271 215.481 327.988 228.056 336.907 220.439C339.925 217.862 341.969 213.078 340.489 209.754ZM330.884 219.149C329.642 219.319 326.619 216.403 327.386 212.973C327.888 210.721 330.093 208.971 331.138 209.159C331.813 209.281 332.521 209.18 333.212 209.228C339.793 209.684 336.3 218.898 330.884 219.149Z" fill="#092D35"/>
</svg>
