<svg width="447" height="326" viewBox="0 0 447 326" fill="none" xmlns="http://www.w3.org/2000/svg">
<path fill-rule="evenodd" clip-rule="evenodd" d="M446.032 123.104C440.502 164.336 434.26 186.116 397.825 229.296C361.391 272.476 194.663 300.882 133.024 300.882C71.3848 300.882 -4.57824 253.351 0.216017 198.28C5.01027 143.208 30.0226 98.1967 89.8907 92.6557C151.073 86.993 204.816 113.216 264.882 99.1519C316.813 86.993 332.702 40.6475 368.368 26.0256C440.502 -3.54592 449.795 95.0536 446.032 123.104Z" fill="#092D35"/>
<path d="M408.921 143.242C406.884 146.696 381.085 164.175 365.436 166.761C362.408 167.262 359.101 167.434 356.471 165.853C354.917 164.918 353.759 163.462 352.659 162.021C350.144 158.725 347.745 155.342 345.467 151.878C344.27 150.058 343.084 148.158 342.677 146.018C341.6 140.351 346.168 135.261 350.683 131.671C361.06 123.417 373.211 117.404 386.068 114.16C388.344 113.586 390.757 113.099 393.012 113.752C396.671 114.81 398.859 118.513 400.256 122.057C401.652 125.602 402.741 129.479 405.532 132.072C406.169 132.664 410.959 139.787 408.921 143.242Z" fill="white"/>
<path fill-rule="evenodd" clip-rule="evenodd" d="M270.298 293.826C245.26 298.108 257.194 279.91 260.647 257.133C266.32 219.707 273.317 162.831 273.317 162.831C273.317 162.831 277.879 249.496 277.879 270.598C277.879 291.701 273.316 293.31 270.298 293.826Z" fill="white"/>
<path d="M243.546 273.206C244.185 279.233 244.858 285.387 247.419 290.88C246.022 278.442 244.625 266.004 243.227 253.566C243.055 252.03 243.106 250.075 244.519 249.448C245.715 263.493 247.497 277.488 249.86 291.384C250.141 293.034 247.663 293.977 246.271 293.048C244.88 292.118 244.434 290.309 244.118 288.666C241.812 276.691 240.544 264.517 240.333 252.324C237.397 252.902 235.338 255.749 234.744 258.682C234.15 261.615 234.722 264.644 235.294 267.581C237.136 277.036 238.977 286.491 240.818 295.945C241.68 300.368 242.541 304.937 241.591 309.341C237.936 292.656 234.998 275.814 232.787 258.877C204.746 276.024 168.615 279.213 138.005 267.242C131.319 264.627 124.68 261.163 120.264 255.503C116.785 251.044 114.929 245.509 113.957 239.938C110.503 220.154 117.58 199.974 127.186 182.336C130.831 175.644 134.982 168.674 134.688 161.059C134.586 158.438 134.021 155.535 135.552 153.404C135.769 153.799 125.53 80.5572 129.637 64.3564C139.526 25.3542 171.648 20.0721 192.215 20.5532C206.015 20.876 293.487 38.2595 306.125 61.899C322.735 92.9682 319.208 119.09 316.258 136.313C315.38 141.442 273.328 162.453 273.317 162.559C270.913 184.908 254.78 233.606 241.249 251.556C242.015 258.772 242.78 265.989 243.546 273.206Z" fill="white"/>
<path fill-rule="evenodd" clip-rule="evenodd" d="M41.6403 182.27C33.7542 179.122 24.3563 180.055 17.2464 184.693C16.5581 185.142 15.5685 184.642 15.2277 183.895C14.887 183.148 15.0144 182.279 15.1887 181.476C17.4595 171.027 26.5055 163.031 36.5654 159.356C46.6254 155.682 57.6293 155.672 68.3231 156.3C69.3842 156.362 70.4932 156.445 71.3984 157.001C72.3035 157.557 72.9125 158.747 72.4613 159.708C68.2546 168.665 65.0858 178.108 63.038 187.788C62.706 189.358 61.0796 190.399 59.4778 190.53C57.876 190.661 56.3065 190.07 54.8529 189.385C50.3226 187.253 46.2909 184.126 41.6403 182.27Z" fill="white"/>
<path d="M206.915 318.628C211.521 318.499 216.156 319.518 220.285 321.567C219.181 323.153 216.963 323.375 215.032 323.448L164.568 325.363C164.106 325.306 164.019 324.591 164.346 324.26C164.674 323.929 165.186 323.886 165.652 323.863C182.072 323.063 198.493 322.262 214.914 321.461C212.068 321.2 209.291 320.216 206.915 318.628ZM289.158 276.909C289.537 276.349 290.392 276.052 290.905 276.493C288.883 285.848 286.862 295.203 284.84 304.558C286.841 303.071 289.369 302.309 291.859 302.443C289.653 304.086 287.975 306.426 287.126 309.042C288.59 307.914 291.083 308.698 291.637 310.461C292.49 309.831 293.901 310.258 294.262 311.255C294.623 312.252 293.812 313.483 292.753 313.545C311.546 313.71 330.338 313.875 349.13 314.04C337.422 316.259 325.38 314.555 313.465 314.335C305.724 314.192 297.97 314.682 290.308 315.797C290.985 314.465 291.474 313.037 291.752 311.57C276.989 315.714 261.334 310.807 245.999 310.903C241.856 310.928 236.896 311.894 235.371 315.746C234.7 311.548 234.029 307.349 233.359 303.151C232.748 306.536 232.138 309.921 231.528 313.307C231.378 314.136 231.185 315.041 230.525 315.566C229.676 316.24 228.36 315.969 227.549 315.248C226.739 314.528 226.316 313.478 225.936 312.462C223.692 306.47 221.967 300.283 220.79 293.993C220.714 301.725 223.884 309.073 226.996 316.152C225.64 315.776 224.285 315.4 222.929 315.025C224.026 316.4 225.123 317.776 226.22 319.152C222.826 317.879 219.536 316.326 216.397 314.514C217.692 316.321 218.986 318.128 220.281 319.935C217.106 318.436 214.322 316.119 212.271 313.27C215.141 312.492 218.352 313.093 220.747 314.857C219.636 313.274 219.131 311.278 219.355 309.358C220.887 310.702 222.42 312.046 223.952 313.391C221.364 307.467 219.568 301.199 218.626 294.804C218.439 293.532 218.58 291.807 219.837 291.54C221.13 291.266 221.946 292.866 222.282 294.145C223.722 299.639 225.163 305.134 226.604 310.629C227.175 308.694 227.746 306.759 228.317 304.824C228.595 307.147 229.362 309.411 230.554 311.424C230.955 307.319 232.205 303.299 234.202 299.691C234.637 303.708 235.074 307.727 235.509 311.744C248.612 307.683 262.657 311.97 276.363 312.549C279.13 312.666 282.059 312.588 284.428 311.153C286.797 309.717 288.285 306.482 286.923 304.07C285.512 306.36 283.692 308.398 281.574 310.057C283.522 305.847 285.51 301.463 285.477 296.824C283.53 300.675 281.583 304.526 279.636 308.377C278.632 306.692 277.627 305.007 276.623 303.322C275.275 305.728 275.688 308.991 277.591 310.986C275.931 309.874 274.271 308.762 272.611 307.65C272.359 308.323 272.108 308.997 271.857 309.671C270.237 309.156 268.922 307.774 268.49 306.13C270.183 305.443 272.233 305.726 273.677 306.845C274.74 304.283 275.802 301.721 276.865 299.158C277.606 301.303 278.348 303.448 279.089 305.593C284.753 297.842 288.133 288.442 288.701 278.859C288.741 278.184 288.779 277.469 289.158 276.909ZM289.256 311.004C289.042 310.319 287.878 310.264 287.601 310.926L287.437 310.864C287.231 311.108 287.229 311.5 287.434 311.745C288.089 311.648 288.719 311.391 289.256 311.004ZM135.553 153.404C137.239 156.472 137.881 160.102 137.35 163.563C166.38 162.313 195.452 162.061 224.499 162.808C224.838 164.143 222.904 164.764 221.526 164.743C194.419 164.339 167.299 164.801 140.221 166.128C139.364 166.17 138.463 166.226 137.736 166.683C136.971 167.163 136.526 168.006 136.115 168.81C128.43 183.846 120.72 199.102 117.005 215.575C115.095 224.047 114.364 233.318 118.279 241.07C119.764 244.01 121.864 246.607 124.209 248.92C136.801 261.34 155.657 265.148 173.34 264.851C184.626 264.661 195.887 263.038 206.768 260.034C218.303 256.85 229.808 251.83 237.681 242.819C242.305 237.526 245.448 231.118 248.2 224.652C253.455 212.305 257.485 199.438 260.213 186.3C261.922 186.659 261.946 189.076 261.552 190.777C256.675 211.817 251.006 234.244 234.942 248.681C220.433 261.72 199.989 265.765 180.512 266.856C169.262 267.486 157.833 267.288 146.936 264.42C136.039 261.552 125.634 255.815 118.716 246.921C120.734 254.614 127.569 260.104 134.684 263.657C153.367 272.987 175.429 272.493 196.058 269.25C209.8 267.09 223.905 263.545 234.599 254.65C243.74 247.046 249.567 236.185 253.952 225.133C258.805 212.899 262.172 200.076 263.955 187.035C265.065 186.334 265.887 188.296 265.747 189.602C263.343 211.951 254.781 233.606 241.25 251.556C242.016 258.773 242.781 265.989 243.546 273.206C244.186 279.233 244.859 285.387 247.42 290.88C246.023 278.442 244.625 266.004 243.228 253.566C243.055 252.03 243.107 250.075 244.52 249.448C245.716 263.493 247.498 277.488 249.861 291.384C250.141 293.034 247.664 293.976 246.272 293.047C244.881 292.118 244.435 290.309 244.119 288.666C241.812 276.692 240.544 264.517 240.333 252.324C237.398 252.903 235.339 255.749 234.745 258.682C234.151 261.615 234.723 264.644 235.295 267.581C237.137 277.036 238.977 286.491 240.819 295.946C241.68 300.368 242.542 304.937 241.591 309.341C237.937 292.656 234.998 275.814 232.788 258.877C204.747 276.024 168.616 279.212 138.005 267.241C131.32 264.627 124.681 261.163 120.265 255.503C116.787 251.045 114.93 245.509 113.957 239.939C110.504 220.155 117.581 199.973 127.187 182.336C130.832 175.644 134.983 168.674 134.689 161.06C134.588 158.438 134.022 155.535 135.553 153.404ZM273.659 190.13C274.244 189.432 275.475 189.752 275.986 190.506C276.497 191.26 276.498 192.235 276.481 193.146C275.98 220.25 276.309 247.408 278.904 274.393C279.524 280.84 280.267 287.408 278.909 293.74C278.43 294.087 277.95 293.298 277.88 292.711C274.626 265.356 274.136 237.756 273.649 210.212C273.539 204.023 273.429 197.833 273.32 191.644C273.31 191.115 273.319 190.535 273.659 190.13ZM259.129 138.431C250.817 142.351 242.278 146.435 236.084 153.225C235.26 154.129 234.467 155.103 234.059 156.257C232.762 159.928 235.704 163.654 238.587 166.271C251.871 178.326 268.93 186.161 286.73 188.383C287.052 186.33 288.677 184.669 290.542 183.752C292.408 182.835 294.508 182.539 296.567 182.257C303.856 181.258 311.669 180.362 318.235 183.681C319.866 184.506 320.004 186.975 318.924 188.45C317.844 189.925 315.997 190.605 314.225 191.055C306.395 193.044 298.154 192.075 290.135 191.095C288.166 190.855 287.458 193.711 287.98 195.625C289.038 199.501 291.849 202.721 295.158 205C298.467 207.279 302.271 208.72 306.066 210.04C315.317 213.257 324.773 215.886 334.357 217.904C338.329 218.74 342.441 219.517 345.827 221.757C345.633 222.668 344.37 222.74 343.451 222.589C329.532 220.298 315.842 216.618 302.65 211.621C298.39 210.008 294.097 208.207 290.669 205.206C287.242 202.206 284.769 197.779 285.182 193.242C285.275 192.223 285.223 190.795 284.207 190.665C267.267 188.514 251.006 181.268 238.079 170.111C234.027 166.614 229.979 161.724 231.194 156.512C231.686 154.401 233.003 152.58 234.432 150.95C240.668 143.84 249.708 139.257 259.129 138.431ZM315.954 185.266C309.961 183.283 303.447 184.113 297.193 184.965C294.315 185.357 291.011 186.034 289.658 188.604C292.442 188.38 295.255 188.506 298.007 188.98C303.704 189.96 309.618 189.659 315.186 188.103C315.715 187.955 316.261 187.785 316.662 187.409C317.062 187.034 317.267 186.393 316.986 185.922C316.772 185.564 316.349 185.397 315.954 185.266ZM175.322 128.495C175.401 129.432 174.315 129.98 173.422 130.275C163.315 133.616 153.718 138.498 145.066 144.699C137.366 150.218 129.96 156.985 120.644 158.708C117.909 159.214 116.146 161.777 114.332 163.886C108.238 170.973 99.0045 174.428 90.0473 177.101C83.9396 178.924 77.1322 180.465 71.3901 177.698C70.6171 177.326 69.8357 176.224 70.5678 175.777C76.4683 178.426 83.3345 176.885 89.5239 175.007C99.4409 171.999 109.762 167.737 115.492 159.102C111.988 158.841 109.079 155.173 109.797 151.734C110.516 148.294 114.868 146.111 117.981 147.741C121.093 149.372 121.675 154.4 118.916 156.575C127.501 155.29 134.77 149.802 141.737 144.624C151.837 137.118 162.791 129.646 175.322 128.495ZM382.869 112.88C385.144 112.306 387.558 111.82 389.813 112.472C393.472 113.531 395.66 117.233 397.056 120.778C398.452 124.322 399.542 128.198 402.332 130.791C402.97 131.383 403.715 131.939 403.999 132.761C404.284 133.583 403.766 134.733 402.899 134.666C399.237 133.274 397.245 129.381 395.829 125.729C394.412 122.077 393.055 118.09 389.872 115.807C387.646 124.669 384.261 133.239 379.829 141.23C379.307 142.17 378.71 143.159 377.732 143.606C376.973 143.952 376.101 143.915 375.267 143.868C364.798 143.279 354.35 142.307 343.952 140.954C342.845 140.81 341.943 142.017 341.966 143.133C341.989 144.249 342.637 145.243 343.262 146.167C345.735 149.826 348.207 153.485 350.68 157.144C351.876 158.914 353.144 160.75 355.021 161.771C357.529 163.136 360.601 162.772 363.389 162.154C378.094 158.892 390.763 149.818 402.624 140.532C403.369 139.949 404.355 139.335 405.191 139.779C405.92 140.167 406.066 141.211 405.722 141.961C405.379 142.712 404.689 143.235 404.026 143.727C391.281 153.169 377.887 162.895 362.238 165.482C359.21 165.982 355.903 166.154 353.272 164.572C351.718 163.638 350.56 162.182 349.46 160.74C346.946 157.445 344.546 154.062 342.268 150.599C341.071 148.779 339.885 146.878 339.478 144.738C338.401 139.072 342.969 133.982 347.484 130.391C357.861 122.137 370.012 116.124 382.869 112.88ZM145.961 37.0861C164.091 24.7297 186.196 17.2069 207.999 19.6496C215.358 20.474 222.545 22.3999 229.671 24.4094C251.966 30.6954 274.259 37.9799 293.975 50.1389C295.686 51.1941 297.603 52.7576 297.284 54.7424C272.692 40.3758 245.045 32.2464 217.709 24.2492C235.993 31.6129 255.776 40.3034 264.713 57.8713C268.495 65.3051 269.931 73.6852 271.057 81.9494C274.404 106.52 275.428 131.407 274.109 156.17C284.732 151.007 295.356 145.843 305.979 140.68C308.723 139.346 311.603 137.896 313.259 135.334C314.81 132.936 315.039 129.944 315.192 127.092C316.087 110.392 315.915 93.6345 314.678 76.9562C318.246 92.3739 319.828 108.25 319.373 124.069C319.249 128.352 318.875 132.919 316.26 136.314C314.361 138.78 311.515 140.3 308.759 141.748C298.915 146.92 289.071 152.092 279.227 157.263C267.819 163.256 254.081 164.661 241.696 161.1C250.555 160.639 259.415 160.177 268.274 159.716C268.997 159.678 269.771 159.622 270.338 159.172C271.168 158.514 271.233 157.3 271.228 156.241C271.096 130.062 270.956 103.777 267.139 77.8762C265.937 69.7157 264.271 61.3575 259.688 54.4992C254.641 46.9462 246.596 42.0048 238.663 37.5803C224.431 29.6438 208.99 22.4178 192.699 22.7687C179.25 23.0586 166.444 28.519 154.665 35.0148C145.312 40.1722 135.78 46.7257 132.084 56.7463C130.043 62.2818 130.013 68.3296 130.111 74.2287C130.461 95.2663 132.142 116.282 135.141 137.108C135.468 139.375 135.245 142.494 132.991 142.901C130.107 120.569 127.219 98.1981 126.444 75.6945C126.219 69.1697 126.203 62.456 128.534 56.3576C131.675 48.1382 138.69 42.0418 145.961 37.0861ZM249.481 121.37C250.261 121.14 251.14 120.918 251.853 121.31C252.566 121.701 252.694 122.996 251.911 123.214C215.419 133.341 179.341 144.962 143.799 158.037C143.099 158.295 142.357 158.557 141.624 158.422C140.89 158.287 140.204 157.591 140.366 156.862C140.518 156.175 141.278 155.837 141.942 155.602C177.407 143.044 213.403 132.041 249.481 121.37ZM115.416 148.937C114.917 148.937 114.426 149.097 113.988 149.337C112.443 150.182 111.573 152.167 112.136 153.835C112.751 155.658 114.743 156.666 116.644 156.957C117.457 155.522 118.293 154 118.282 152.35C118.271 150.7 117.066 148.935 115.416 148.937ZM386.676 115.106C384.555 114.873 382.455 115.589 380.453 116.328C374.129 118.663 367.93 121.338 361.892 124.335C355.513 127.502 349.129 131.188 344.832 136.866C353.466 137.83 362.1 138.793 370.734 139.756C372.36 139.938 374.118 140.094 375.53 139.267C376.639 138.617 377.343 137.465 377.978 136.347C381.764 129.675 384.695 122.517 386.676 115.106ZM261.14 72.8518C262.018 72.434 263.092 72.1413 263.929 72.6359C264.766 73.1309 264.796 74.7058 263.841 74.8879C260.89 75.4498 258.574 77.9047 257.407 80.673C256.239 83.4412 256.037 86.5094 255.932 89.5119C255.614 98.5911 256.044 107.697 257.217 116.705C257.397 118.082 257.609 119.501 258.332 120.686C259.056 121.871 260.428 122.772 261.793 122.52C264.132 122.088 266.644 122.706 268.515 124.172C265.708 124.35 262.901 124.528 260.094 124.706C258.431 124.812 256.445 124.769 255.519 123.382C255.065 122.701 254.99 121.845 254.928 121.029C254.326 113.027 253.723 105.026 253.121 97.0246C252.78 92.5088 252.446 87.9115 253.457 83.4973C254.469 79.0829 257.051 74.7981 261.14 72.8518ZM287.555 0.00116751C289.795 0.0474122 291.871 1.117 293.853 2.16132C303.361 7.16988 313.04 12.3049 320.526 20.0148C320.768 26.4522 319.195 32.8024 317.701 39.0686C311.638 64.4836 306.674 90.1608 302.827 116.004C302.458 118.481 301.758 121.403 299.409 122.271C297.723 122.893 295.764 122.097 294.567 120.758C293.37 119.419 292.797 117.64 292.398 115.889C291.413 111.567 291.294 107.05 292.051 102.683C292.93 97.6144 294.959 92.8082 295.957 87.7619C296.428 85.3747 296.667 82.948 296.898 80.5256C298.125 67.6444 299.165 54.7454 300.019 41.8342C300.14 40.0097 300.249 38.1277 299.652 36.3996C298.589 33.3262 295.492 31.3831 292.365 30.4924C290.571 29.9816 288.682 29.7248 287.02 28.8781C285.358 28.0314 283.917 26.3808 284.039 24.5197C284.43 18.5253 283.978 12.4763 282.7 6.60664C282.475 5.57512 282.224 4.50974 282.432 3.4748C282.874 1.27802 285.315 -0.0449508 287.555 0.00116751ZM290.553 3.25898C289.98 10.1645 289.745 17.098 289.847 24.0266C294.268 24.9595 298.589 26.3685 302.71 28.2209C303.54 28.5939 304.413 29.0308 304.862 29.8225C305.228 30.469 305.249 31.2475 305.26 31.9904C305.39 40.717 305.417 49.4672 304.493 58.1457C303.764 64.987 302.448 71.7498 301.318 78.5363C299.973 86.6107 298.89 94.7296 298.073 102.874C297.479 108.784 297.045 114.892 298.883 120.539C299.826 120.367 300.19 119.231 300.369 118.289C306.031 88.4423 311.693 58.5952 317.356 28.7482C317.768 26.5789 318.179 24.336 317.694 22.1818C316.845 18.4103 313.498 15.7872 310.27 13.6594C304.057 9.56304 297.442 6.07434 290.553 3.25898ZM297.28 91.426C294.802 98.7995 293.867 106.687 294.551 114.436C294.729 116.451 295.059 118.566 296.316 120.152C295.774 115.901 295.632 111.6 295.892 107.323C296.215 102.013 297.156 96.7452 297.28 91.426ZM298.46 111.476C298.486 110.997 299.126 110.751 299.562 110.949C299.998 111.148 300.243 111.617 300.395 112.071C300.951 113.73 300.666 115.648 299.651 117.072C298.854 116.185 299.835 114.771 299.585 113.605C299.416 112.816 298.698 112.247 298.46 111.476ZM298.01 85.9631C297.605 86.1627 297.433 86.7281 297.658 87.1193L297.679 87.0695C298.077 86.8907 298.245 86.3312 298.01 85.9631ZM290.062 26.2219C289.102 26.0344 287.69 26.2377 287.732 27.215C291.708 28.858 295.684 30.5017 299.66 32.1447C300.359 32.4338 301.105 32.7608 301.5 33.4064C301.888 34.0396 301.851 34.8348 301.8 35.5754C300.728 51.3279 299.656 67.0807 298.583 82.8332C301.694 66.8649 303.099 50.565 302.767 34.3C302.742 33.0715 302.676 31.7507 301.924 30.7785C301.374 30.0664 300.533 29.6494 299.711 29.2814C296.625 27.8992 293.381 26.8701 290.062 26.2219ZM287.484 1.67988C286.501 1.02801 285.08 1.69949 284.532 2.74433C283.984 3.78928 284.068 5.0408 284.192 6.21406C284.879 12.7112 286.388 19.2212 285.619 25.7092C286.521 26.0188 287.528 25.3828 287.965 24.5353C288.403 23.6879 288.415 22.6922 288.416 21.7385C288.427 16.0061 288.436 10.2736 288.446 4.54121C288.448 3.49022 288.36 2.26074 287.484 1.67988Z" fill="#00160A"/>
<path fill-rule="evenodd" clip-rule="evenodd" d="M380.393 284.535C379.553 284.904 378.644 285.248 377.74 285.092C376.836 284.937 375.99 284.088 376.172 283.188C377.832 274.966 375.747 266.063 370.609 259.432C368.808 257.109 366.664 255.064 364.91 252.705C363.804 251.219 362.821 249.35 363.381 247.585C364.179 245.072 367.393 244.461 370.022 244.282C376.136 243.865 382.249 243.449 388.363 243.032C391.18 242.84 394.424 242.812 396.304 244.918C401.539 250.781 411.741 251.175 417.412 245.732C418.29 244.89 419.395 246.567 419.36 247.782C419.25 251.605 417.675 255.368 415.028 258.128C414.403 258.779 413.605 259.417 412.707 259.324C411.81 259.23 411.148 257.942 411.864 257.392C413.399 256.213 414.962 255.004 416.038 253.395C417.115 251.786 417.637 249.677 416.903 247.886C412.954 252.882 408.967 257.848 404.943 262.784C397.965 271.341 390.503 280.095 380.393 284.535ZM391.42 259.353C390.416 259.631 389.345 259.418 388.342 259.134C381.126 257.095 374.479 251.458 367.097 252.777C375.704 259.709 380.273 271.33 378.693 282.267C384.363 281.053 388.841 276.82 392.857 272.636C398.802 266.445 404.447 259.965 409.765 253.227C405.942 253.196 402.134 252.093 398.886 250.077C394.874 251.07 395.404 258.251 391.42 259.353ZM396.661 247.969C394.27 245.151 389.975 245.238 386.293 245.562C381.492 245.984 376.691 246.405 371.89 246.827C369.94 246.998 367.702 247.34 366.685 249.012C374.995 250.752 383.097 253.484 390.763 257.133C391.749 254.036 393.725 251.263 396.331 249.32C396.624 249.101 396.959 248.821 396.92 248.457C396.9 248.271 396.782 248.112 396.661 247.969V247.969Z" fill="#00160A"/>
<path fill-rule="evenodd" clip-rule="evenodd" d="M40.7093 180.772C33.4778 177.88 24.86 178.738 18.3403 182.998C17.7092 183.411 16.8017 182.951 16.4892 182.265C16.1768 181.578 16.2936 180.78 16.4535 180.043C18.5357 170.443 26.8308 163.098 36.0557 159.722C45.2806 156.347 55.371 156.337 65.1771 156.914C66.1501 156.972 67.1671 157.048 67.9971 157.559C68.8271 158.07 69.3855 159.163 68.9718 160.045C65.1144 168.274 62.2085 176.949 60.3308 185.841C60.0263 187.283 58.5349 188.24 57.0661 188.36C55.5973 188.481 54.1581 187.938 52.8251 187.309C48.6709 185.35 44.9738 182.477 40.7093 180.772ZM41.536 171.058C40.8915 171.582 39.8841 171.306 39.2777 170.738C38.6713 170.171 38.3257 169.386 37.849 168.706C35.2921 165.059 29.4246 165.361 25.9466 168.144C22.4686 170.927 20.7856 175.324 19.253 179.507C29.4566 175.075 42.0241 176.665 50.8019 183.499C52.0004 184.432 53.1895 185.484 54.6653 185.843C56.1411 186.202 58.0003 185.557 58.3741 184.084C60.3711 176.22 62.8319 168.473 65.7395 160.898C60.1604 167.832 48.4439 165.446 41.536 171.058ZM39.3154 166.868C39.8884 167.588 40.9287 167.779 41.8343 167.616C42.74 167.454 43.5628 167.003 44.4066 166.636C47.3118 165.373 50.5295 165.091 53.6442 164.514C56.7589 163.936 59.9715 162.959 62.1642 160.673C57.217 160.658 52.2699 160.643 47.3227 160.628C42.3511 160.613 36.9935 160.718 32.9995 163.679C35.4309 163.768 37.8002 164.964 39.3154 166.868Z" fill="#00160A"/>
<path fill-rule="evenodd" clip-rule="evenodd" d="M273.041 180.109C273.03 175.757 273.018 171.406 273.006 167.054C273.003 165.805 272.999 164.555 272.996 163.305C272.994 162.444 273.138 161.365 273.957 161.097C274.577 160.895 275.259 161.34 275.548 161.924C275.838 162.508 275.834 163.188 275.825 163.84C275.734 169.912 275.644 175.985 275.554 182.057C275.541 182.931 275.394 184.005 274.576 184.312C273.213 183.539 273.045 181.676 273.041 180.109H273.041Z" fill="#00160A"/>
<path fill-rule="evenodd" clip-rule="evenodd" d="M264.353 176.082C263.723 176.358 263.398 175.32 263.496 174.639C263.844 172.202 264.193 169.761 264.786 167.371C265.155 165.884 265.687 164.319 266.915 163.403C268.144 162.487 270.253 162.647 270.854 164.057C271.145 164.74 271.024 165.52 270.891 166.25C270.063 170.771 268.949 175.239 267.558 179.618C267.499 179.804 267.434 179.998 267.293 180.133C266.951 180.461 266.333 180.24 266.095 179.83C265.858 179.419 265.889 178.912 265.927 178.439C266.492 178.398 266.756 177.732 266.892 177.182C267.447 174.933 268.001 172.684 268.556 170.435C268.988 168.686 269.382 166.693 268.377 165.197C267.345 165.832 266.958 167.117 266.65 168.289C266.033 170.648 265.415 173.006 264.797 175.365C264.723 175.647 264.62 175.964 264.353 176.082L264.353 176.082Z" fill="#00160A"/>
</svg>
