<svg width="84" height="130" viewBox="0 0 84 130" fill="none" xmlns="http://www.w3.org/2000/svg">
<g clip-path="url(#clip0_4434_316)">
<path d="M70.72 118.3C66.17 118.3 61.62 115.83 53.95 105.56C47.84 114.79 39.65 118.95 30.94 118.95C15.21 118.95 3.9 107.12 3.9 91.65C3.9 79.04 9.62 70.98 26.26 62.4C20.54 53.56 16.64 46.67 16.64 39.52C16.64 28.73 23.92 20.93 35.49 20.93C48.62 20.93 53.95 28.21 53.95 37.18C53.95 44.59 50.31 52.78 32.5 61.36C35.62 66.17 39 71.11 42.38 76.31C46.67 83.07 51.74 90.87 56.55 97.76C58.63 93.73 60.71 87.23 61.1 79.69C61.23 75.27 59.41 73.19 51.87 72.54V71.37H78.13V72.54C70.07 73.45 66.69 74.88 64.48 80.86C61.75 88.27 59.8 94.25 57.46 98.93C63.83 107.77 69.94 114.53 73.97 114.53C76.83 114.53 79.04 112.45 81.38 108.94L82.29 109.46C79.43 115.83 74.88 118.3 70.72 118.3ZM10.53 89.83C10.53 105.3 20.8 115.31 34.32 115.31C41.86 115.31 48.62 111.28 53.04 104.39C48.62 98.41 43.29 89.96 36.27 78.26C32.89 72.67 29.77 67.86 26.91 63.44C19.11 68.51 10.53 75.4 10.53 89.83ZM22.49 36.27C22.49 43.94 26.52 51.87 31.85 60.32C42.25 54.21 48.23 46.8 48.23 37.57C48.23 27.82 43.03 22.36 35.36 22.36C28.86 22.36 22.49 26.78 22.49 36.27Z" fill="#062025"/>
</g>
<g clip-path="url(#clip1_4434_316)">
<path d="M70.72 118.3C66.17 118.3 61.62 115.83 53.95 105.56C47.84 114.79 39.65 118.95 30.94 118.95C15.21 118.95 3.9 107.12 3.9 91.65C3.9 79.04 9.62 70.98 26.26 62.4C20.54 53.56 16.64 46.67 16.64 39.52C16.64 28.73 23.92 20.93 35.49 20.93C48.62 20.93 53.95 28.21 53.95 37.18C53.95 44.59 50.31 52.78 32.5 61.36C35.62 66.17 39 71.11 42.38 76.31C46.67 83.07 51.74 90.87 56.55 97.76C58.63 93.73 60.71 87.23 61.1 79.69C61.23 75.27 59.41 73.19 51.87 72.54V71.37H78.13V72.54C70.07 73.45 66.69 74.88 64.48 80.86C61.75 88.27 59.8 94.25 57.46 98.93C63.83 107.77 69.94 114.53 73.97 114.53C76.83 114.53 79.04 112.45 81.38 108.94L82.29 109.46C79.43 115.83 74.88 118.3 70.72 118.3ZM10.53 89.83C10.53 105.3 20.8 115.31 34.32 115.31C41.86 115.31 48.62 111.28 53.04 104.39C48.62 98.41 43.29 89.96 36.27 78.26C32.89 72.67 29.77 67.86 26.91 63.44C19.11 68.51 10.53 75.4 10.53 89.83ZM22.49 36.27C22.49 43.94 26.52 51.87 31.85 60.32C42.25 54.21 48.23 46.8 48.23 37.57C48.23 27.82 43.03 22.36 35.36 22.36C28.86 22.36 22.49 26.78 22.49 36.27Z" fill="white"/>
</g>
<defs>
<clipPath id="clip0_4434_316">
<rect width="42" height="130" fill="white"/>
</clipPath>
<clipPath id="clip1_4434_316">
<rect width="42" height="130" fill="white" transform="translate(42)"/>
</clipPath>
</defs>
</svg>
